# Export of Prefab Tower-Weapon
# from Aaro4130 OBJ Exporter v2.0
mtllib arrow_base_0.mtl
v 2.7199E-07 0.0003652647 -0.9377611
v -0.4688805 0.2342714 -0.8121251
v -0.4688805 0.0003652647 -0.8121251
v 2.7199E-07 0.2342714 -0.9377611
v -0.8121251 0.2342714 -0.4688808
v -0.8121251 0.0003652647 -0.4688808
v -0.8121251 0.0003652647 -0.4688808
v -0.9377614 0.2342714 -1.229784E-07
v -0.9377614 0.0003652647 -1.229784E-07
v -0.8121251 0.2342714 -0.4688808
v -0.8121254 0.2342714 0.4688805
v -0.8121254 0.0003652647 0.4688805
v -0.4688811 0.2342714 0.8121251
v -0.4688811 0.0003652647 0.8121251
v -0.4688811 0.0003652647 0.8121251
v -2.794406E-07 0.2342714 0.9377614
v -2.794406E-07 0.0003652647 0.9377614
v -0.4688811 0.2342714 0.8121251
v -2.794406E-07 0.2342714 0.9377614
v -0.4688805 0.2342714 -0.8121251
v 2.7199E-07 0.2342714 -0.9377611
v -0.9377614 0.2342714 -1.229784E-07
v -0.8121251 0.2342714 -0.4688808
v -0.4688811 0.2342714 0.8121251
v -0.8121254 0.2342714 0.4688805
v 2.7199E-07 0.0003652647 -0.9377611
v 0.4688808 0.2342714 -0.8121249
v 2.7199E-07 0.2342714 -0.9377611
v 0.4688808 0.0003652647 -0.8121249
v 0.4688808 0.0003652647 -0.8121249
v 0.8121253 0.2342714 -0.4688803
v 0.4688808 0.2342714 -0.8121249
v 0.8121253 0.0003652647 -0.4688803
v 0.9377613 0.2342714 4.359028E-07
v 0.9377613 0.0003652647 4.359028E-07
v 0.8121251 0.2342714 0.4688808
v 0.8121251 0.0003652647 0.4688808
v 0.8121251 0.0003652647 0.4688808
v 0.4688807 0.2342714 0.8121253
v 0.8121251 0.2342714 0.4688808
v 0.4688807 0.0003652647 0.8121253
v -2.794406E-07 0.2342714 0.9377614
v -2.794406E-07 0.0003652647 0.9377614
v 0.4688807 0.2342714 0.8121253
v 0.9377613 0.2342714 4.359028E-07
v 0.8121251 0.2342714 0.4688808
v -2.794406E-07 0.2342714 0.9377614
v 0.4688808 0.2342714 -0.8121249
v 0.8121253 0.2342714 -0.4688803
v 2.7199E-07 0.2342714 -0.9377611
v 0.1678661 0.5758166 0.09691759
v -4.780787E-08 0.2233139 0.193835
v 0.1678661 0.2233139 0.09691756
v -3.983191E-08 0.5758165 0.1938351
v 0.1678661 0.5758166 -0.09691744
v 0.1678661 0.2233139 0.09691756
v 0.1678661 0.2233139 -0.09691747
v 0.1678661 0.5758166 0.09691759
v 4.56793E-08 0.5758166 -0.193835
v 0.1678661 0.2233139 -0.09691747
v 3.770334E-08 0.2233139 -0.193835
v 0.1678661 0.5758166 -0.09691744
v -0.167866 0.5758166 -0.0969175
v 3.770334E-08 0.2233139 -0.193835
v -0.167866 0.2233139 -0.09691753
v 4.56793E-08 0.5758166 -0.193835
v -0.1678661 0.5758166 0.09691749
v -0.167866 0.2233139 -0.09691753
v -0.1678661 0.2233139 0.09691746
v -0.167866 0.5758166 -0.0969175
v -3.983191E-08 0.5758165 0.1938351
v -0.1678661 0.2233139 0.09691746
v -4.780787E-08 0.2233139 0.193835
v -0.1678661 0.5758166 0.09691749
v -0.167866 0.5758166 -0.0969175
v 0.1678661 0.5758166 -0.09691744
v 4.56793E-08 0.5758166 -0.193835
v -3.983191E-08 0.5758165 0.1938351
v 0.1678661 0.5758166 0.09691759
v -0.1678661 0.5758166 0.09691749
vn 0 0 -1
vn -0.3785808 0.6532267 -0.655722
vn -0.4999995 0 -0.8660257
vn 0 0.6532268 -0.7571623
vn -0.6557217 0.6532267 -0.3785814
vn -0.8660253 0 -0.5000003
vn -0.8660253 0 -0.5000003
vn -0.7571625 0.6532266 0
vn -1 0 0
vn -0.6557217 0.6532267 -0.3785814
vn -0.6557218 0.6532269 0.3785808
vn -0.8660257 0 0.4999996
vn -0.3785813 0.6532267 0.6557217
vn -0.5000003 0 0.8660253
vn -0.5000003 0 0.8660253
vn 0 0.6532268 0.7571624
vn 0 0 1
vn -0.3785813 0.6532267 0.6557217
vn 0 0.6532268 0.7571624
vn -0.3785808 0.6532267 -0.655722
vn 0 0.6532268 -0.7571623
vn -0.7571625 0.6532266 0
vn -0.6557217 0.6532267 -0.3785814
vn -0.3785813 0.6532267 0.6557217
vn -0.6557218 0.6532269 0.3785808
vn 0 0 -1
vn 0.3785813 0.6532267 -0.6557218
vn 0 0.6532268 -0.7571623
vn 0.5000002 0 -0.8660253
vn 0.5000002 0 -0.8660253
vn 0.655722 0.6532267 -0.378581
vn 0.3785813 0.6532267 -0.6557218
vn 0.8660256 0 -0.4999998
vn 0.7571622 0.6532269 0
vn 1 0 0
vn 0.6557217 0.6532268 0.3785811
vn 0.8660254 0 0.5
vn 0.8660254 0 0.5
vn 0.3785811 0.6532267 0.6557218
vn 0.6557217 0.6532268 0.3785811
vn 0.5 0 0.8660254
vn 0 0.6532268 0.7571624
vn 0 0 1
vn 0.3785811 0.6532267 0.6557218
vn 0.7571622 0.6532269 0
vn 0.6557217 0.6532268 0.3785811
vn 0 0.6532268 0.7571624
vn 0.3785813 0.6532267 -0.6557218
vn 0.655722 0.6532267 -0.378581
vn 0 0.6532268 -0.7571623
vn -0.6862434 -0.6099943 -0.3962031
vn 0 0 -1
vn -0.8660253 0 -0.5000002
vn 0 -0.6099941 -0.7924059
vn -0.6862435 -0.6099944 0.3962027
vn -0.8660253 0 -0.5000002
vn -0.8660255 0 0.4999999
vn -0.6862434 -0.6099943 -0.3962031
vn 0 -0.6099943 0.7924058
vn -0.8660255 0 0.4999999
vn 0 0 1
vn -0.6862435 -0.6099944 0.3962027
vn 0.6862435 -0.6099943 0.396203
vn 0 0 1
vn 0.8660253 0 0.5000002
vn 0 -0.6099943 0.7924058
vn 0.6862437 -0.6099944 -0.3962027
vn 0.8660253 0 0.5000002
vn 0.8660255 0 -0.4999997
vn 0.6862435 -0.6099943 0.396203
vn 0 -0.6099941 -0.7924059
vn 0.8660255 0 -0.4999997
vn 0 0 -1
vn 0.6862437 -0.6099944 -0.3962027
vn 0.6862435 -0.6099943 0.396203
vn -0.6862435 -0.6099944 0.3962027
vn 0 -0.6099943 0.7924058
vn 0 -0.6099941 -0.7924059
vn -0.6862434 -0.6099943 -0.3962031
vn 0.6862437 -0.6099944 -0.3962027
vt 0.004061155 0.8088692
vt 0.1228242 0.8660265
vt 0.1228241 0.8088686
vt 0.004061324 0.8660269
vt 0.2415867 0.866026
vt 0.2415866 0.8088686
vt 0.2415866 0.8088686
vt 0.3603487 0.8660258
vt 0.3603487 0.8088685
vt 0.2415867 0.866026
vt 0.4791107 0.866026
vt 0.4791107 0.8088685
vt 0.5978728 0.8660262
vt 0.5978731 0.8088686
vt 0.5978731 0.8088686
vt 0.716635 0.8660269
vt 0.7166353 0.8088693
vt 0.5978728 0.8660262
vt 0.3567098 0.6160495
vt 0.03448166 0.5297086
vt 0.01134668 0.6160495
vt 0.1840283 0.4433681
vt 0.09768746 0.4665028
vt 0.3335748 0.5297088
vt 0.2703689 0.4665028
vt 0.004061155 0.8088692
vt 0.1228242 0.8660265
vt 0.004061324 0.8660269
vt 0.1228241 0.8088686
vt 0.1228241 0.8088686
vt 0.2415867 0.866026
vt 0.1228242 0.8660265
vt 0.2415866 0.8088686
vt 0.3603487 0.8660258
vt 0.3603487 0.8088685
vt 0.4791107 0.866026
vt 0.4791107 0.8088685
vt 0.4791107 0.8088685
vt 0.5978728 0.8660262
vt 0.4791107 0.866026
vt 0.5978731 0.8088686
vt 0.716635 0.8660269
vt 0.7166353 0.8088693
vt 0.3335748 0.5297088
vt 0.1840283 0.4433681
vt 0.2703689 0.4665028
vt 0.3567098 0.6160495
vt 0.03448166 0.5297086
vt 0.09768746 0.4665028
vt 0.01134668 0.6160495
vt 0.3606847 0.4905253
vt 0.3768455 0.4317463
vt 0.3606847 0.4317463
vt 0.3768455 0.4905253
vt 0.3283632 0.4905253
vt 0.3606847 0.4317463
vt 0.3283632 0.4317463
vt 0.3606847 0.4905253
vt 0.3122025 0.4905253
vt 0.3283632 0.4317463
vt 0.3122025 0.4317463
vt 0.3283632 0.4905253
vt 0.3283634 0.4905253
vt 0.3122025 0.4317463
vt 0.3283634 0.4317463
vt 0.3122025 0.4905253
vt 0.3606847 0.4905253
vt 0.3283634 0.4317463
vt 0.3606847 0.4317463
vt 0.3283634 0.4905253
vt 0.3768455 0.4905253
vt 0.3606847 0.4317463
vt 0.3768455 0.4317463
vt 0.3606847 0.4905253
vt 0.3417864 0.6336026
vt 0.3417864 0.6967782
vt 0.323549 0.6651903
vt 0.3964979 0.6651903
vt 0.3782608 0.6967782
vt 0.3782608 0.6336026
usemtl CrossBow
f 3/3/3 2/2/2 1/1/1
f 4/4/4 1/1/1 2/2/2
f 2/2/2 3/3/3 5/5/5
f 6/6/6 5/5/5 3/3/3
f 9/9/9 8/8/8 7/7/7
f 10/10/10 7/7/7 8/8/8
f 8/8/8 9/9/9 11/11/11
f 12/12/12 11/11/11 9/9/9
f 11/11/11 12/12/12 13/13/13
f 14/14/14 13/13/13 12/12/12
f 17/17/17 16/16/16 15/15/15
f 18/18/18 15/15/15 16/16/16
f 21/21/21 20/20/20 19/19/19
f 20/20/20 22/22/22 19/19/19
f 23/23/23 22/22/22 20/20/20
f 22/22/22 24/24/24 19/19/19
f 25/25/25 24/24/24 22/22/22
f 28/28/28 27/27/27 26/26/26
f 29/29/29 26/26/26 27/27/27
f 32/32/32 31/31/31 30/30/30
f 33/33/33 30/30/30 31/31/31
f 31/31/31 34/34/34 33/33/33
f 35/35/35 33/33/33 34/34/34
f 34/34/34 36/36/36 35/35/35
f 37/37/37 35/35/35 36/36/36
f 40/40/40 39/39/39 38/38/38
f 41/41/41 38/38/38 39/39/39
f 39/39/39 42/42/42 41/41/41
f 43/43/43 41/41/41 42/42/42
f 46/46/46 45/45/45 44/44/44
f 44/44/44 45/45/45 47/47/47
f 45/45/45 48/48/48 47/47/47
f 49/49/49 48/48/48 45/45/45
f 48/48/48 50/50/50 47/47/47
f 53/53/53 52/52/52 51/51/51
f 54/54/54 51/51/51 52/52/52
f 57/57/57 56/56/56 55/55/55
f 58/58/58 55/55/55 56/56/56
f 61/61/61 60/60/60 59/59/59
f 62/62/62 59/59/59 60/60/60
f 65/65/65 64/64/64 63/63/63
f 66/66/66 63/63/63 64/64/64
f 69/69/69 68/68/68 67/67/67
f 70/70/70 67/67/67 68/68/68
f 73/73/73 72/72/72 71/71/71
f 74/74/74 71/71/71 72/72/72
f 77/77/77 76/76/76 75/75/75
f 76/76/76 78/78/78 75/75/75
f 79/79/79 78/78/78 76/76/76
f 78/78/78 80/80/80 75/75/75
