# Export of Prefab Tower-Weapon
# from Aaro4130 OBJ Exporter v2.0
mtllib arrow_hub_0.mtl
v 0.6202961 0.3134582 1.919378E-17
v 0.4386155 0.4781177 -0.4386155
v 0.4386155 0.3134582 -0.4386155
v 0.6202961 0.4781177 2.927626E-17
v -2.7114E-08 0.4781177 -0.6202961
v -2.7114E-08 0.3134582 -0.6202961
v -2.7114E-08 0.3134582 -0.6202961
v -0.4386155 0.4781177 -0.4386155
v -0.4386155 0.3134582 -0.4386155
v -2.7114E-08 0.4781177 -0.6202961
v -0.6202961 0.4781177 5.4228E-08
v -0.6202961 0.3134582 5.4228E-08
v -0.6202961 0.3134582 5.4228E-08
v -0.4386155 0.4781177 0.4386156
v -0.4386155 0.3134582 0.4386156
v -0.6202961 0.4781177 5.4228E-08
v -0.4386155 0.3134582 0.4386156
v 7.396957E-09 0.4781177 0.6202961
v 7.396957E-09 0.3134582 0.6202961
v -0.4386155 0.4781177 0.4386156
v 0.4386155 0.4781177 0.4386156
v 0.4386155 0.3134582 0.4386156
v 0.4386155 0.3134582 0.4386156
v 0.6202961 0.4781177 2.927626E-17
v 0.6202961 0.3134582 1.919378E-17
v 0.4386155 0.4781177 0.4386156
v 0.4386155 0.4781177 -0.4386155
v -0.4386155 0.4781177 -0.4386155
v -2.7114E-08 0.4781177 -0.6202961
v 0.4386155 0.4781177 0.4386156
v -0.4386155 0.4781177 0.4386156
v -0.6202961 0.4781177 5.4228E-08
v 7.396957E-09 0.4781177 0.6202961
v 0.6202961 0.4781177 2.927626E-17
v 0.397425 0.4646087 2.844908E-17
v 0.1745857 0.8009667 -0.1745857
v 0.2810219 0.4646087 -0.2810219
v 0.2469014 0.8009667 5.643772E-09
v -7.970517E-09 0.8009667 -0.2469014
v -1.7372E-08 0.4646087 -0.397425
v -1.7372E-08 0.4646087 -0.397425
v -0.1745857 0.8009667 -0.1745857
v -0.2810219 0.4646087 -0.2810219
v -7.970517E-09 0.8009667 -0.2469014
v -0.2469014 0.8009667 2.722858E-08
v -0.397425 0.4646087 3.474399E-08
v -0.397425 0.4646087 3.474399E-08
v -0.1745856 0.8009667 0.1745857
v -0.2810218 0.4646087 0.2810219
v -0.2469014 0.8009667 2.722858E-08
v 5.766156E-09 0.8009667 0.2469014
v 4.739245E-09 0.4646087 0.397425
v 4.739245E-09 0.4646087 0.397425
v 0.1745856 0.8009667 0.1745857
v 0.2810219 0.4646087 0.2810219
v 5.766156E-09 0.8009667 0.2469014
v 0.2469014 0.8009667 5.643772E-09
v 0.397425 0.4646087 2.844908E-17
v 0.1745857 0.8009667 -0.1745857
v -0.1745857 0.8009667 -0.1745857
v -7.970517E-09 0.8009667 -0.2469014
v 0.1745856 0.8009667 0.1745857
v -0.1745856 0.8009667 0.1745857
v -0.2469014 0.8009667 2.722858E-08
v 5.766156E-09 0.8009667 0.2469014
v 0.2469014 0.8009667 5.643772E-09
v 0.1952606 0.44131 2.702245E-17
v 0.1380701 1.596621 -0.1380701
v 0.1380701 0.44131 -0.1380701
v 0.1952606 1.596621 9.776483E-17
v 0.1380701 0.44131 0.1380701
v 0.1380701 1.596621 0.1380701
v 0.1380701 0.44131 -0.1380701
v -8.535112E-09 1.596621 -0.1952606
v -8.535112E-09 0.44131 -0.1952606
v 0.1380701 1.596621 -0.1380701
v -8.535112E-09 0.44131 -0.1952606
v -0.1380701 1.596621 -0.1380701
v -0.1380701 0.44131 -0.1380701
v -8.535112E-09 1.596621 -0.1952606
v -0.1380701 0.44131 -0.1380701
v -0.1952606 1.596621 1.707022E-08
v -0.1952606 0.44131 1.707022E-08
v -0.1380701 1.596621 -0.1380701
v -0.1380701 1.596621 0.1380701
v -0.1380701 0.44131 0.1380701
v -0.1380701 0.44131 0.1380701
v 2.328459E-09 1.596621 0.1952606
v 2.328459E-09 0.44131 0.1952606
v -0.1380701 1.596621 0.1380701
v 2.328459E-09 0.44131 0.1952606
v 0.1380701 1.596621 0.1380701
v 0.1380701 0.44131 0.1380701
v 2.328459E-09 1.596621 0.1952606
vn 1 0 0
vn 0.7071067 0 -0.7071068
vn 0.7071068 0 -0.7071067
vn 1 0 0
vn 0 0 -1
vn 0 0 -1
vn 0 0 -1
vn -0.7071068 0 -0.7071066
vn -0.7071068 0 -0.7071068
vn 0 0 -1
vn -1 0 0
vn -1 0 0
vn -1 0 0
vn -0.7071066 0 0.7071069
vn -0.7071066 0 0.7071068
vn -1 0 0
vn -0.7071066 0 0.7071068
vn 0 0 1
vn 0 0 1
vn -0.7071066 0 0.7071069
vn 0.7071068 0 0.7071068
vn 0.7071066 0 0.7071068
vn 0.7071066 0 0.7071068
vn 1 0 0
vn 1 0 0
vn 0.7071068 0 0.7071068
vn 0 1 0
vn 0 1 0
vn 0 1 0
vn 0 1 0
vn 0 1 0
vn 0 1 0
vn 0 1 0
vn 0 1 0
vn 0.9127702 0.4084736 0
vn 0.6454259 0.4084736 -0.6454259
vn 0.6454259 0.4084736 -0.645426
vn 0.9127702 0.4084737 0
vn 0 0.4084736 -0.9127702
vn 0 0.4084736 -0.9127702
vn 0 0.4084736 -0.9127702
vn -0.645426 0.4084736 -0.6454259
vn -0.645426 0.4084736 -0.6454259
vn 0 0.4084736 -0.9127702
vn -0.9127702 0.4084736 0
vn -0.9127702 0.4084737 0
vn -0.9127702 0.4084737 0
vn -0.6454259 0.4084736 0.645426
vn -0.6454259 0.4084736 0.645426
vn -0.9127702 0.4084736 0
vn 0 0.4084737 0.9127702
vn 0 0.4084736 0.9127702
vn 0 0.4084736 0.9127702
vn 0.6454259 0.4084736 0.645426
vn 0.6454259 0.4084736 0.6454259
vn 0 0.4084737 0.9127702
vn 0.9127702 0.4084737 0
vn 0.9127702 0.4084736 0
vn 0 1 0
vn 0 1 0
vn 0 1 0
vn 0 1 0
vn 0 1 0
vn 0 1 0
vn 0 1 0
vn 0 1 0
vn 1 0 0
vn 0.7071066 0 -0.7071068
vn 0.7071068 0 -0.7071067
vn 1 0 0
vn 0.7071066 0 0.7071069
vn 0.7071068 0 0.7071068
vn 0.7071068 0 -0.7071067
vn 0 0 -1
vn 0 0 -1
vn 0.7071066 0 -0.7071068
vn 0 0 -1
vn -0.7071068 0 -0.7071067
vn -0.7071068 0 -0.7071068
vn 0 0 -1
vn -0.7071068 0 -0.7071068
vn -1 0 0
vn -1 0 0
vn -0.7071068 0 -0.7071067
vn -0.7071066 0 0.7071069
vn -0.7071067 0 0.7071068
vn -0.7071067 0 0.7071068
vn 0 0 1
vn 0 0 1
vn -0.7071066 0 0.7071069
vn 0 0 1
vn 0.7071068 0 0.7071068
vn 0.7071066 0 0.7071069
vn 0 0 1
vt 0.3014046 0.007118523
vt 0.3477899 0.02806181
vt 0.3477899 0.007118523
vt 0.3014046 0.02806193
vt 0.3941751 0.02806181
vt 0.3941751 0.007118523
vt 0.02308872 0.007119358
vt 0.06947485 0.02806276
vt 0.06947473 0.007118881
vt 0.02308884 0.02806288
vt 0.115861 0.0280624
vt 0.115861 0.007118523
vt 0.115861 0.007118523
vt 0.1622473 0.0280624
vt 0.1622473 0.007118523
vt 0.115861 0.0280624
vt 0.1622473 0.007118523
vt 0.2086333 0.02806216
vt 0.2086333 0.007118523
vt 0.1622473 0.0280624
vt 0.2550191 0.02806193
vt 0.2550191 0.007118523
vt 0.2550191 0.007118523
vt 0.3014046 0.02806193
vt 0.3014046 0.007118523
vt 0.2550191 0.02806193
vt 0.6146085 0.2753456
vt 0.5559044 0.2510296
vt 0.5802205 0.2753456
vt 0.6389245 0.2166416
vt 0.5802205 0.1923256
vt 0.5559044 0.2166416
vt 0.6146085 0.1923256
vt 0.6389245 0.2510296
vt 0.646425 0.07730734
vt 0.6574014 0.1345756
vt 0.61788 0.1058183
vt 0.6751353 0.1168633
vt 0.6460036 0.1568986
vt 0.5995337 0.1417502
vt 0.5995231 0.1417656
vt 0.6573905 0.1345909
vt 0.6178691 0.1058336
vt 0.6459929 0.1569137
vt 0.6751242 0.1168785
vt 0.6464139 0.07732284
vt 0.6464139 0.07732284
vt 0.6974605 0.1055076
vt 0.6823679 0.05901957
vt 0.6751242 0.1168785
vt 0.7222277 0.1015744
vt 0.7222277 0.05269778
vt 0.7222277 0.05269778
vt 0.6974714 0.1054924
vt 0.6823791 0.05900419
vt 0.7222277 0.1015744
vt 0.6751353 0.1168633
vt 0.646425 0.07730734
vt 0.6153256 0.2755512
vt 0.5561542 0.2511231
vt 0.5806638 0.2755512
vt 0.6398351 0.2165765
vt 0.5806638 0.1921482
vt 0.5561542 0.2165765
vt 0.6153256 0.1921482
vt 0.6398352 0.2511231
vt 0.8321624 0.1039482
vt 0.9917596 0.1246005
vt 0.8321618 0.1249534
vt 0.9917602 0.1035951
vt 0.832163 0.08294283
vt 0.9917608 0.08258985
vt 0.8321618 0.1249534
vt 0.9917589 0.1456059
vt 0.8321612 0.1459588
vt 0.9917596 0.1246005
vt 0.8321659 0.1452623
vt 0.9917634 0.1246098
vt 0.8321653 0.1242572
vt 0.9917641 0.1456152
vt 0.8321653 0.1242572
vt 0.9917627 0.1036044
vt 0.8321648 0.1032518
vt 0.9917634 0.1246098
vt 0.991762 0.08259927
vt 0.8321641 0.08224641
vt 0.8321641 0.08224641
vt 0.9917614 0.06159387
vt 0.8321636 0.06124125
vt 0.991762 0.08259927
vt 0.8321636 0.06193743
vt 0.9917608 0.08258985
vt 0.832163 0.08294283
vt 0.9917614 0.06158457
usemtl CrossBow
f 3/3/3 2/2/2 1/1/1
f 4/4/4 1/1/1 2/2/2
f 2/2/2 3/3/3 5/5/5
f 6/6/6 5/5/5 3/3/3
f 9/9/9 8/8/8 7/7/7
f 10/10/10 7/7/7 8/8/8
f 8/8/8 9/9/9 11/11/11
f 12/12/12 11/11/11 9/9/9
f 15/15/15 14/14/14 13/13/13
f 16/16/16 13/13/13 14/14/14
f 19/19/19 18/18/18 17/17/17
f 20/20/20 17/17/17 18/18/18
f 18/18/18 19/19/19 21/21/21
f 22/22/22 21/21/21 19/19/19
f 25/25/25 24/24/24 23/23/23
f 26/26/26 23/23/23 24/24/24
f 29/29/29 28/28/28 27/27/27
f 28/28/28 30/30/30 27/27/27
f 31/31/31 30/30/30 28/28/28
f 32/32/32 31/31/31 28/28/28
f 33/33/33 30/30/30 31/31/31
f 27/27/27 30/30/30 34/34/34
f 37/37/37 36/36/36 35/35/35
f 38/38/38 35/35/35 36/36/36
f 36/36/36 37/37/37 39/39/39
f 40/40/40 39/39/39 37/37/37
f 43/43/43 42/42/42 41/41/41
f 44/44/44 41/41/41 42/42/42
f 42/42/42 43/43/43 45/45/45
f 46/46/46 45/45/45 43/43/43
f 49/49/49 48/48/48 47/47/47
f 50/50/50 47/47/47 48/48/48
f 48/48/48 49/49/49 51/51/51
f 52/52/52 51/51/51 49/49/49
f 55/55/55 54/54/54 53/53/53
f 56/56/56 53/53/53 54/54/54
f 54/54/54 55/55/55 57/57/57
f 58/58/58 57/57/57 55/55/55
f 61/61/61 60/60/60 59/59/59
f 60/60/60 62/62/62 59/59/59
f 63/63/63 62/62/62 60/60/60
f 64/64/64 63/63/63 60/60/60
f 65/65/65 62/62/62 63/63/63
f 59/59/59 62/62/62 66/66/66
f 69/69/69 68/68/68 67/67/67
f 70/70/70 67/67/67 68/68/68
f 67/67/67 70/70/70 71/71/71
f 72/72/72 71/71/71 70/70/70
f 75/75/75 74/74/74 73/73/73
f 76/76/76 73/73/73 74/74/74
f 79/79/79 78/78/78 77/77/77
f 80/80/80 77/77/77 78/78/78
f 83/83/83 82/82/82 81/81/81
f 84/84/84 81/81/81 82/82/82
f 82/82/82 83/83/83 85/85/85
f 86/86/86 85/85/85 83/83/83
f 89/89/89 88/88/88 87/87/87
f 90/90/90 87/87/87 88/88/88
f 93/93/93 92/92/92 91/91/91
f 94/94/94 91/91/91 92/92/92
