# Export of Prefab Tower-Weapon
# from Aaro4130 OBJ Exporter v2.0
mtllib mageturret.mtl
v -0.08054958 0.360961 -1.654877E-07
v 0.1801136 1.432858 0.8022388
v 0.7629742 1.207956 -5.243794E-08
v 0.3777724 3.000544 0.01784446
v 0.05707337 2.87373 0.4592487
v -0.08634757 3.351817 0.01784453
v -0.08054958 0.360961 -1.654877E-07
v -0.7629747 1.234928 0.4958107
v 0.1801136 1.432858 0.8022388
v -0.4618285 3.000544 0.2906473
v 0.05707337 2.87373 0.4592487
v -0.08634757 3.351817 0.01784453
v -0.08054958 0.360961 -1.654877E-07
v -0.7629746 1.412038 -0.495811
v -0.7629747 1.234928 0.4958107
v -0.4618285 3.000544 0.2906473
v -0.4618285 3.00708 -0.2549585
v -0.08634757 3.351817 0.01784453
v -0.08054958 0.360961 -1.654877E-07
v 0.1801137 1.323169 -0.8022388
v -0.7629746 1.412038 -0.495811
v -0.4618285 3.00708 -0.2549585
v 0.09186122 2.888099 -0.471542
v -0.08634757 3.351817 0.01784453
v -0.08054958 0.360961 -1.654877E-07
v 0.7629742 1.207956 -5.243794E-08
v 0.1801137 1.323169 -0.8022388
v 0.3777724 3.000544 0.01784446
v 0.09186122 2.888099 -0.471542
v -0.08634757 3.351817 0.01784453
vn -0.01509613 -0.999886 -0.0002947139
vn 0.3061907 -0.1468762 0.9405715
vn 0.9595899 -0.2812597 0.008964446
vn 0.8515317 0.5230507 0.03621628
vn 0.2779641 0.4216113 0.8631221
vn 0.02754301 0.9992983 0.02538307
vn -0.01509613 -0.999886 -0.0002947139
vn -0.7754456 -0.2823595 0.5647629
vn 0.3061907 -0.1468762 0.9405715
vn -0.6735398 0.5064612 0.5383689
vn 0.2779641 0.4216113 0.8631221
vn 0.02754301 0.9992983 0.02538307
vn -0.01509613 -0.999886 -0.0002947139
vn -0.793661 -0.1619744 -0.5864013
vn -0.7754456 -0.2823595 0.5647629
vn -0.6735398 0.5064612 0.5383689
vn -0.6879334 0.5128359 -0.5135631
vn 0.02754301 0.9992983 0.02538307
vn -0.01509613 -0.999886 -0.0002947139
vn 0.2883976 -0.2074754 -0.9347624
vn -0.793661 -0.1619744 -0.5864013
vn -0.6879334 0.5128359 -0.5135631
vn 0.3029217 0.4270393 -0.8519835
vn 0.02754301 0.9992983 0.02538307
vn -0.01509613 -0.999886 -0.0002947139
vn 0.9595899 -0.2812597 0.008964446
vn 0.2883976 -0.2074754 -0.9347624
vn 0.8515317 0.5230507 0.03621628
vn 0.3029217 0.4270393 -0.8519835
vn 0.02754301 0.9992983 0.02538307
vt 0.2210847 0.1421115
vt 0.2725322 0.336329
vt 0.3820908 0.2194797
vt 0.5001163 0.4490131
vt 0.4199281 0.4856472
vt 0.5047596 0.5374793
vt 0.9951274 0.1207011
vt 0.8445486 0.2082555
vt 0.958869 0.3104472
vt 0.7452154 0.4311831
vt 0.8248312 0.4610359
vt 0.7465696 0.5162074
vt 0.8113822 0.03725901
vt 0.6931087 0.1873552
vt 0.8445486 0.2082555
vt 0.7452154 0.4311831
vt 0.6737185 0.4115466
vt 0.6915717 0.4848503
vt 0.6094075 0.006743298
vt 0.5354128 0.1817674
vt 0.6931087 0.1873552
vt 0.6737185 0.4115466
vt 0.5779738 0.4016043
vt 0.6352339 0.4906447
vt 0.4065365 0.04251507
vt 0.3820908 0.2194797
vt 0.5354128 0.1817674
vt 0.5001163 0.4490131
vt 0.5779738 0.4016043
vt 0.5614682 0.5006763
usemtl Crystal
f 3/3/3 2/2/2 1/1/1
f 3/3/3 4/4/4 2/2/2
f 5/5/5 2/2/2 4/4/4
f 6/6/6 5/5/5 4/4/4
f 9/9/9 8/8/8 7/7/7
f 8/8/8 9/9/9 10/10/10
f 11/11/11 10/10/10 9/9/9
f 12/12/12 10/10/10 11/11/11
f 15/15/15 14/14/14 13/13/13
f 15/15/15 16/16/16 14/14/14
f 17/17/17 14/14/14 16/16/16
f 18/18/18 17/17/17 16/16/16
f 21/21/21 20/20/20 19/19/19
f 21/21/21 22/22/22 20/20/20
f 23/23/23 20/20/20 22/22/22
f 24/24/24 23/23/23 22/22/22
f 27/27/27 26/26/26 25/25/25
f 26/26/26 27/27/27 28/28/28
f 29/29/29 28/28/28 27/27/27
f 30/30/30 28/28/28 29/29/29
