# Export of Prefab Tower-Weapon
# from Aaro4130 OBJ Exporter v2.0
mtllib mage_base_2.mtl
v 0.6630974 0.2335398 0.6630975
v 0.2427104 -0.000366345 0.905808
v 0.2427104 0.2335398 0.905808
v 0.6630974 -0.000366345 0.6630975
v 0.9179648 0.05063365 0.7488846
v 0.9179648 0.1825398 0.7488846
v 1.107535 0.1825398 0.4205385
v 1.107535 0.05063365 0.4205385
v 0.9058079 0.2335398 -0.2427105
v 0.9058079 -0.000366345 0.2427105
v 0.9058079 0.2335398 0.2427105
v 0.9058079 -0.000366345 -0.2427105
v 1.107535 0.05063365 -0.4205386
v 1.107535 0.1825398 -0.4205386
v 0.9179648 0.1825398 -0.7488844
v 1.107535 0.05063365 -0.4205386
v 1.107535 0.1825398 -0.4205386
v 0.9179648 0.05063365 -0.7488844
v 0.6630974 -0.000366345 -0.6630973
v 0.6630974 0.2335398 -0.6630973
v 0.2427105 0.2335398 -0.9058078
v 0.2427105 -0.000366345 -0.9058078
v 0.1895708 0.05063365 -1.169423
v 0.1895708 0.1825398 -1.169423
v -0.1895705 0.1825398 -1.169423
v 0.1895708 0.05063365 -1.169423
v 0.1895708 0.1825398 -1.169423
v -0.1895705 0.05063365 -1.169423
v 0.9058079 0.2335398 -0.2427105
v 0.2427105 0.2335398 -0.9058078
v 0.6630974 0.2335398 -0.6630973
v -0.2427104 0.2335398 -0.905808
v 0.6630974 0.2335398 0.6630975
v 0.2427104 0.2335398 0.905808
v 0.9058079 0.2335398 0.2427105
v 1.107535 0.1825398 0.4205385
v 0.9058079 -0.000366345 0.2427105
v 1.107535 0.05063365 0.4205385
v 0.9058079 0.2335398 0.2427105
v 0.9179648 0.1825398 0.7488846
v 0.9058079 0.2335398 0.2427105
v 1.107535 0.1825398 0.4205385
v 0.6630974 0.2335398 0.6630975
v 1.107535 0.1825398 -0.4205386
v 0.6630974 0.2335398 -0.6630973
v 0.9179648 0.1825398 -0.7488844
v 0.9058079 0.2335398 -0.2427105
v 0.1895708 0.1825398 -1.169423
v -0.2427104 0.2335398 -0.905808
v -0.1895705 0.1825398 -1.169423
v 0.2427105 0.2335398 -0.9058078
v -0.6630974 0.2335398 -0.6630974
v -0.2427104 -0.000366345 -0.905808
v -0.2427104 0.2335398 -0.905808
v -0.6630974 -0.000366345 -0.6630974
v -0.9179648 0.05063365 -0.7488846
v -0.9179648 0.1825398 -0.7488846
v -1.107535 0.1825398 -0.4205385
v -1.107535 0.05063365 -0.4205385
v -0.9058079 0.2335398 0.2427106
v -0.9058079 -0.000366345 -0.2427105
v -0.9058079 0.2335398 -0.2427105
v -0.9058079 -0.000366345 0.2427106
v -1.107535 0.1825398 -0.4205385
v -1.107535 0.05063365 -0.4205385
v -1.107535 0.05063365 0.4205386
v -1.107535 0.1825398 0.4205386
v -0.9179647 0.1825398 0.7488847
v -0.9179647 0.05063365 0.7488847
v -0.2427107 0.2335398 0.9058079
v -0.6630975 -0.000366345 0.6630975
v -0.6630975 0.2335398 0.6630975
v -0.2427107 -0.000366345 0.9058079
v -0.1895709 0.05063365 1.169423
v -0.1895709 0.1825398 1.169423
v 0.1895704 0.1825398 1.169423
v -0.1895709 0.05063365 1.169423
v -0.1895709 0.1825398 1.169423
v 0.1895704 0.05063365 1.169423
v -0.9058079 0.2335398 0.2427106
v -0.2427107 0.2335398 0.9058079
v -0.6630975 0.2335398 0.6630975
v 0.2427104 0.2335398 0.905808
v -0.6630974 0.2335398 -0.6630974
v -0.2427104 0.2335398 -0.905808
v -0.9058079 0.2335398 -0.2427105
v -0.9179648 0.1825398 -0.7488846
v -0.9058079 0.2335398 -0.2427105
v -1.107535 0.1825398 -0.4205385
v -0.6630974 0.2335398 -0.6630974
v -0.9179647 0.1825398 0.7488847
v -0.6630975 -0.000366345 0.6630975
v -0.9179647 0.05063365 0.7488847
v -0.6630975 0.2335398 0.6630975
v -1.107535 0.1825398 0.4205386
v -0.6630975 0.2335398 0.6630975
v -0.9179647 0.1825398 0.7488847
v -0.9058079 0.2335398 0.2427106
v -0.1895709 0.1825398 1.169423
v 0.2427104 0.2335398 0.905808
v 0.1895704 0.1825398 1.169423
v -0.2427107 0.2335398 0.9058079
v 0.2427104 0.2335398 0.905808
v 0.1895704 0.05063365 1.169423
v 0.1895704 0.1825398 1.169423
v 0.2427104 -0.000366345 0.905808
v -0.2427104 0.2335398 -0.905808
v -0.1895705 0.05063365 -1.169423
v -0.1895705 0.1825398 -1.169423
v -0.2427104 -0.000366345 -0.905808
v 1.034977E-07 0.2328831 -0.4982916
v 1.262527E-07 0.1160757 -0.7487858
v -0.1381948 0.1744794 -0.6235387
v 0.138195 0.1744794 -0.6235387
v 1.262527E-07 0.1160757 -0.7487858
v 1.933527E-07 1.477771 -1.231273
v -0.1381948 0.1744794 -0.6235387
v -0.1381948 0.1744794 -0.6235387
v 1.933527E-07 1.477771 -1.231273
v 1.034977E-07 0.2328831 -0.4982916
v 1.034977E-07 0.2328831 -0.4982916
v 1.933527E-07 1.477771 -1.231273
v 0.138195 0.1744794 -0.6235387
v 0.138195 0.1744794 -0.6235387
v 1.933527E-07 1.477771 -1.231273
v 1.262527E-07 0.1160757 -0.7487858
v 0.4982916 0.2328831 1.846797E-07
v 0.7487858 0.1160757 2.482454E-07
v 0.6235387 0.1744794 -0.1381947
v 0.6235386 0.1744794 0.1381951
v 0.7487858 0.1160757 2.482454E-07
v 1.231273 1.477771 3.939526E-07
v 0.6235387 0.1744794 -0.1381947
v 0.6235387 0.1744794 -0.1381947
v 1.231273 1.477771 3.939526E-07
v 0.4982916 0.2328831 1.846797E-07
v 0.4982916 0.2328831 1.846797E-07
v 1.231273 1.477771 3.939526E-07
v 0.6235386 0.1744794 0.1381951
v 0.6235386 0.1744794 0.1381951
v 1.231273 1.477771 3.939526E-07
v 0.7487858 0.1160757 2.482454E-07
v -2.658616E-07 0.2328831 0.4982916
v -3.702381E-07 0.1160757 0.7487858
v 0.1381946 0.1744794 0.6235387
v -0.1381952 0.1744794 0.6235386
v -3.702381E-07 0.1160757 0.7487858
v -5.945525E-07 1.477771 1.231273
v 0.1381946 0.1744794 0.6235387
v 0.1381946 0.1744794 0.6235387
v -5.945525E-07 1.477771 1.231273
v -2.658616E-07 0.2328831 0.4982916
v -2.658616E-07 0.2328831 0.4982916
v -5.945525E-07 1.477771 1.231273
v -0.1381952 0.1744794 0.6235386
v -0.1381952 0.1744794 0.6235386
v -5.945525E-07 1.477771 1.231273
v -3.702381E-07 0.1160757 0.7487858
v -0.4982916 0.2328831 -2.231566E-08
v -0.7487858 0.1160757 -4.260049E-09
v -0.6235387 0.1744794 0.1381949
v -0.6235387 0.1744794 -0.1381949
v -0.7487858 0.1160757 -4.260049E-09
v -1.231273 1.477771 7.247166E-09
v -0.6235387 0.1744794 0.1381949
v -0.6235387 0.1744794 0.1381949
v -1.231273 1.477771 7.247166E-09
v -0.4982916 0.2328831 -2.231566E-08
v -0.4982916 0.2328831 -2.231566E-08
v -1.231273 1.477771 7.247166E-09
v -0.6235387 0.1744794 -0.1381949
v -0.6235387 0.1744794 -0.1381949
v -1.231273 1.477771 7.247166E-09
v -0.7487858 0.1160757 -4.260049E-09
vn 0.1166025 0.8113114 0.572868
vn 0.7950556 0 0.6065364
vn 0.4378169 0.8113112 0.3874149
vn 0.1277477 0 0.9918067
vn 0.3100128 0 0.9507324
vn 0.3278012 0.5214883 0.7877795
vn 0.8461375 0.5214882 -0.1100059
vn 0.9783648 0 -0.2068876
vn 0.5544196 0.8113114 0.1854532
vn 0.9228035 0 -0.3852707
vn 0.5544195 0.8113114 -0.1854534
vn 0.9228038 0 0.3852705
vn 0.9783648 0 0.2068875
vn 0.8461375 0.5214882 0.1100057
vn 0.3278009 0.5214884 -0.7877795
vn 0.9783648 0 0.2068875
vn 0.8461375 0.5214882 0.1100057
vn 0.3100126 0 -0.9507325
vn 0.1277476 0 -0.9918067
vn 0.1166025 0.8113114 -0.5728681
vn 0.4378171 0.8113114 -0.3874146
vn 0.795056 0 -0.606536
vn 0.6683522 0 -0.7438449
vn 0.5183367 0.5214883 -0.6777737
vn -0.5183365 0.5214883 -0.6777738
vn 0.6683522 0 -0.7438449
vn 0.5183367 0.5214883 -0.6777737
vn -0.6683522 0 -0.7438451
vn 0.5544196 0.8113114 0.1854532
vn 0.4378171 0.8113114 -0.3874146
vn 0.1166025 0.8113114 -0.5728681
vn -0.437817 0.8113114 -0.3874148
vn 0.1166025 0.8113114 0.572868
vn 0.4378169 0.8113112 0.3874149
vn 0.5544195 0.8113114 -0.1854534
vn 0.8461375 0.5214882 -0.1100059
vn 0.9228035 0 -0.3852707
vn 0.9783648 0 -0.2068876
vn 0.5544195 0.8113114 -0.1854534
vn 0.3278012 0.5214883 0.7877795
vn 0.5544195 0.8113114 -0.1854534
vn 0.8461375 0.5214882 -0.1100059
vn 0.1166025 0.8113114 0.572868
vn 0.8461375 0.5214882 0.1100057
vn 0.1166025 0.8113114 -0.5728681
vn 0.3278009 0.5214884 -0.7877795
vn 0.5544196 0.8113114 0.1854532
vn 0.5183367 0.5214883 -0.6777737
vn -0.437817 0.8113114 -0.3874148
vn -0.5183365 0.5214883 -0.6777738
vn 0.4378171 0.8113114 -0.3874146
vn -0.1166025 0.8113114 -0.572868
vn -0.7950559 0 -0.6065361
vn -0.437817 0.8113114 -0.3874148
vn -0.1277477 0 -0.9918067
vn -0.3100125 0 -0.9507325
vn -0.3278008 0.5214882 -0.7877795
vn -0.8461375 0.5214884 0.1100058
vn -0.9783648 0 0.2068874
vn -0.5544195 0.8113114 -0.1854534
vn -0.9228036 0 0.3852706
vn -0.5544195 0.8113114 0.1854533
vn -0.9228036 0 -0.3852707
vn -0.8461375 0.5214884 0.1100058
vn -0.9783648 0 0.2068874
vn -0.9783648 0 -0.2068875
vn -0.8461375 0.5214882 -0.1100058
vn -0.3278009 0.5214882 0.7877795
vn -0.3100125 0 0.9507325
vn -0.4378169 0.8113114 0.3874148
vn -0.1277475 0 0.9918067
vn -0.1166024 0.8113114 0.5728681
vn -0.7950559 0 0.6065361
vn -0.6683521 0 0.7438452
vn -0.5183365 0.5214881 0.6777738
vn 0.5183364 0.5214882 0.6777739
vn -0.6683521 0 0.7438452
vn -0.5183365 0.5214881 0.6777738
vn 0.6683521 0 0.7438452
vn -0.5544195 0.8113114 -0.1854534
vn -0.4378169 0.8113114 0.3874148
vn -0.1166024 0.8113114 0.5728681
vn 0.4378169 0.8113112 0.3874149
vn -0.1166025 0.8113114 -0.572868
vn -0.437817 0.8113114 -0.3874148
vn -0.5544195 0.8113114 0.1854533
vn -0.3278008 0.5214882 -0.7877795
vn -0.5544195 0.8113114 0.1854533
vn -0.8461375 0.5214884 0.1100058
vn -0.1166025 0.8113114 -0.572868
vn -0.3278009 0.5214882 0.7877795
vn -0.1277475 0 0.9918067
vn -0.3100125 0 0.9507325
vn -0.1166024 0.8113114 0.5728681
vn -0.8461375 0.5214882 -0.1100058
vn -0.1166024 0.8113114 0.5728681
vn -0.3278009 0.5214882 0.7877795
vn -0.5544195 0.8113114 -0.1854534
vn -0.5183365 0.5214881 0.6777738
vn 0.4378169 0.8113112 0.3874149
vn 0.5183364 0.5214882 0.6777739
vn -0.4378169 0.8113114 0.3874148
vn 0.4378169 0.8113112 0.3874149
vn 0.6683521 0 0.7438452
vn 0.5183364 0.5214882 0.6777739
vn 0.7950556 0 0.6065364
vn -0.437817 0.8113114 -0.3874148
vn -0.6683522 0 -0.7438451
vn -0.5183365 0.5214883 -0.6777738
vn -0.7950559 0 -0.6065361
vn 0 -0.1357851 0.9907383
vn 0 -0.8462306 -0.5328169
vn -0.8405285 -0.4910078 0.2289608
vn 0.8405285 -0.4910078 0.2289608
vn 0 -0.8462306 -0.5328169
vn -0.7054799 -0.2367036 -0.6680341
vn -0.8405285 -0.4910078 0.2289608
vn -0.8405285 -0.4910078 0.2289608
vn -0.7054799 0.3595937 0.6107294
vn 0 -0.1357851 0.9907383
vn 0 -0.1357851 0.9907383
vn 0.7054799 0.3595936 0.6107295
vn 0.8405285 -0.4910078 0.2289608
vn 0.8405285 -0.4910078 0.2289608
vn 0.70548 -0.2367037 -0.668034
vn 0 -0.8462306 -0.5328169
vn -0.9907383 -0.1357851 0
vn 0.5328168 -0.8462306 0
vn -0.2289605 -0.4910078 -0.8405287
vn -0.2289611 -0.4910079 0.8405285
vn 0.5328168 -0.8462306 0
vn 0.6680342 -0.2367036 -0.7054797
vn -0.2289605 -0.4910078 -0.8405287
vn -0.2289605 -0.4910078 -0.8405287
vn -0.6107292 0.3595937 -0.7054801
vn -0.9907383 -0.1357851 0
vn -0.9907383 -0.1357851 0
vn -0.6107297 0.3595936 0.7054797
vn -0.2289611 -0.4910079 0.8405285
vn -0.2289611 -0.4910079 0.8405285
vn 0.6680337 -0.2367036 0.7054801
vn 0.5328168 -0.8462306 0
vn 0 -0.1357851 -0.9907383
vn 0 -0.8462306 0.5328168
vn 0.8405287 -0.4910078 -0.2289604
vn -0.8405284 -0.4910079 -0.2289611
vn 0 -0.8462306 0.5328168
vn 0.7054796 -0.2367036 0.6680343
vn 0.8405287 -0.4910078 -0.2289604
vn 0.8405287 -0.4910078 -0.2289604
vn 0.7054801 0.3595937 -0.6107292
vn 0 -0.1357851 -0.9907383
vn 0 -0.1357851 -0.9907383
vn -0.7054797 0.3595936 -0.6107298
vn -0.8405284 -0.4910079 -0.2289611
vn -0.8405284 -0.4910079 -0.2289611
vn -0.7054802 -0.2367037 0.6680337
vn 0 -0.8462306 0.5328168
vn 0.9907383 -0.135785 0
vn -0.5328169 -0.8462306 0
vn 0.2289607 -0.4910077 0.8405285
vn 0.2289607 -0.4910078 -0.8405285
vn -0.5328169 -0.8462306 0
vn -0.668034 -0.2367036 0.7054799
vn 0.2289607 -0.4910077 0.8405285
vn 0.2289607 -0.4910077 0.8405285
vn 0.6107295 0.3595936 0.7054799
vn 0.9907383 -0.135785 0
vn 0.9907383 -0.135785 0
vn 0.6107295 0.3595936 -0.7054799
vn 0.2289607 -0.4910078 -0.8405285
vn 0.2289607 -0.4910078 -0.8405285
vn -0.668034 -0.2367037 -0.7054799
vn -0.5328169 -0.8462306 0
vt 0.09106686 0.9969207
vt 0.003258355 0.9384592
vt 0.003242178 0.996878
vt 0.09108295 0.9385018
vt 0.1397334 0.9512628
vt 0.1397246 0.984207
vt 0.2083215 0.9842384
vt 0.2083298 0.9512939
vt 0.3447998 0.9970351
vt 0.2569876 0.9385772
vt 0.2569731 0.9969974
vt 0.3448128 0.9386147
vt 0.3931154 0.9512668
vt 0.3931606 0.9844574
vt 0.4620582 0.9843476
vt 0.3928158 0.9513731
vt 0.3928385 0.9849459
vt 0.4620659 0.951401
vt 0.510727 0.9386816
vt 0.5107136 0.9971063
vt 0.5985472 0.9971415
vt 0.5985605 0.9387168
vt 0.6472161 0.951475
vt 0.6472087 0.9844219
vt 0.7158106 0.9844491
vt 0.6472161 0.951475
vt 0.6472087 0.9844219
vt 0.7158179 0.9515023
vt 0.5402253 0.6254741
vt 0.6890754 0.7114127
vt 0.6261638 0.6485013
vt 0.7121027 0.7962677
vt 0.391375 0.7114128
vt 0.3683478 0.7962677
vt 0.4542865 0.6485013
vt 0.2083215 0.9842384
vt 0.2569876 0.9385772
vt 0.2083298 0.9512939
vt 0.2569731 0.9969974
vt 0.4664105 0.5536717
vt 0.3879303 0.6180556
vt 0.3975778 0.5536717
vt 0.476058 0.6180557
vt 0.3974513 0.5539376
vt 0.4756506 0.6184329
vt 0.4660513 0.5539666
vt 0.3878209 0.6183959
vt 0.3978141 0.5536258
vt 0.4760165 0.6181208
vt 0.466416 0.5536529
vt 0.3881846 0.6180862
vt 0.09106686 0.9969207
vt 0.003258355 0.9384592
vt 0.003242178 0.996878
vt 0.09108295 0.9385018
vt 0.1397334 0.9512628
vt 0.1397246 0.984207
vt 0.2083215 0.9842384
vt 0.2083298 0.9512939
vt 0.3447998 0.9970351
vt 0.2569876 0.9385772
vt 0.2569731 0.9969974
vt 0.344814 0.9386147
vt 0.2083215 0.9842384
vt 0.2083298 0.9512939
vt 0.393466 0.9513731
vt 0.3934582 0.9843186
vt 0.4620582 0.9843476
vt 0.4620659 0.951401
vt 0.5985472 0.9971415
vt 0.510727 0.9386816
vt 0.5107136 0.9971063
vt 0.5985605 0.9387168
vt 0.6472161 0.951475
vt 0.6472087 0.9844219
vt 0.7158106 0.9844491
vt 0.6472161 0.951475
vt 0.6472087 0.9844219
vt 0.7158179 0.9515023
vt 0.5402253 0.6254741
vt 0.6890754 0.7114127
vt 0.6261638 0.6485013
vt 0.7121027 0.7962677
vt 0.391375 0.7114128
vt 0.3683478 0.7962677
vt 0.4542865 0.6485013
vt 0.3973547 0.553826
vt 0.4755493 0.6183214
vt 0.4659516 0.5538574
vt 0.3877235 0.6182812
vt 0.4620582 0.9843476
vt 0.510727 0.9386816
vt 0.4620659 0.951401
vt 0.5107136 0.9971063
vt 0.3974513 0.5539376
vt 0.4756506 0.6184329
vt 0.4660513 0.5539666
vt 0.3878209 0.6183959
vt 0.3978141 0.5536258
vt 0.4760165 0.6181208
vt 0.466416 0.5536529
vt 0.3881846 0.6180862
vt 0.2570053 0.9969752
vt 0.2083253 0.9513853
vt 0.2083253 0.9842634
vt 0.2570053 0.9386734
vt 0.5985524 0.9971358
vt 0.6472074 0.9514648
vt 0.6472074 0.9844012
vt 0.5985524 0.9387304
vt 0.1967054 0.4188015
vt 0.2450009 0.4188015
vt 0.2208532 0.4188015
vt 0.1725574 0.4188015
vt 0.2450009 0.4188015
vt 0.1960696 0.08164656
vt 0.2208532 0.4188015
vt 0.2208532 0.4188015
vt 0.1960696 0.08164656
vt 0.1967054 0.4188015
vt 0.1967054 0.4188015
vt 0.1960696 0.08164656
vt 0.1725574 0.4188015
vt 0.1725574 0.4188015
vt 0.1960696 0.08164656
vt 0.1484097 0.4188014
vt 0.1967054 0.4188015
vt 0.2450009 0.4188015
vt 0.2208532 0.4188015
vt 0.1725574 0.4188015
vt 0.2450009 0.4188015
vt 0.1960696 0.08164656
vt 0.2208532 0.4188015
vt 0.2208532 0.4188015
vt 0.1960696 0.08164656
vt 0.1967054 0.4188015
vt 0.1967054 0.4188015
vt 0.1960696 0.08164656
vt 0.1725574 0.4188015
vt 0.1725574 0.4188015
vt 0.1960696 0.08164656
vt 0.1484097 0.4188014
vt 0.1967054 0.4188015
vt 0.2450009 0.4188015
vt 0.2208532 0.4188015
vt 0.1725574 0.4188015
vt 0.2450009 0.4188015
vt 0.1960696 0.08164656
vt 0.2208532 0.4188015
vt 0.2208532 0.4188015
vt 0.1960696 0.08164656
vt 0.1967054 0.4188015
vt 0.1967054 0.4188015
vt 0.1960696 0.08164656
vt 0.1725574 0.4188015
vt 0.1725574 0.4188015
vt 0.1960696 0.08164656
vt 0.1484097 0.4188014
vt 0.1967054 0.4188015
vt 0.2450009 0.4188015
vt 0.2208532 0.4188015
vt 0.1725574 0.4188015
vt 0.2450009 0.4188015
vt 0.1960696 0.08164656
vt 0.2208532 0.4188015
vt 0.2208532 0.4188015
vt 0.1960696 0.08164656
vt 0.1967054 0.4188015
vt 0.1967054 0.4188015
vt 0.1960696 0.08164656
vt 0.1725574 0.4188015
vt 0.1725574 0.4188015
vt 0.1960696 0.08164656
vt 0.1484097 0.4188014
usemtl Crystal
f 3/3/3 2/2/2 1/1/1
f 4/4/4 1/1/1 2/2/2
f 4/4/4 5/5/5 1/1/1
f 6/6/6 1/1/1 5/5/5
f 6/6/6 5/5/5 7/7/7
f 8/8/8 7/7/7 5/5/5
f 11/11/11 10/10/10 9/9/9
f 12/12/12 9/9/9 10/10/10
f 12/12/12 13/13/13 9/9/9
f 14/14/14 9/9/9 13/13/13
f 17/17/17 16/16/16 15/15/15
f 18/18/18 15/15/15 16/16/16
f 18/18/18 19/19/19 15/15/15
f 20/20/20 15/15/15 19/19/19
f 20/20/20 19/19/19 21/21/21
f 22/22/22 21/21/21 19/19/19
f 22/22/22 23/23/23 21/21/21
f 24/24/24 21/21/21 23/23/23
f 27/27/27 26/26/26 25/25/25
f 28/28/28 25/25/25 26/26/26
f 31/31/31 30/30/30 29/29/29
f 30/30/30 32/32/32 29/29/29
f 32/32/32 33/33/33 29/29/29
f 34/34/34 33/33/33 32/32/32
f 33/33/33 35/35/35 29/29/29
f 38/38/38 37/37/37 36/36/36
f 39/39/39 36/36/36 37/37/37
f 42/42/42 41/41/41 40/40/40
f 43/43/43 40/40/40 41/41/41
f 46/46/46 45/45/45 44/44/44
f 47/47/47 44/44/44 45/45/45
f 50/50/50 49/49/49 48/48/48
f 51/51/51 48/48/48 49/49/49
f 54/54/54 53/53/53 52/52/52
f 55/55/55 52/52/52 53/53/53
f 55/55/55 56/56/56 52/52/52
f 57/57/57 52/52/52 56/56/56
f 57/57/57 56/56/56 58/58/58
f 59/59/59 58/58/58 56/56/56
f 62/62/62 61/61/61 60/60/60
f 63/63/63 60/60/60 61/61/61
f 62/62/62 64/64/64 61/61/61
f 65/65/65 61/61/61 64/64/64
f 63/63/63 66/66/66 60/60/60
f 67/67/67 60/60/60 66/66/66
f 67/67/67 66/66/66 68/68/68
f 69/69/69 68/68/68 66/66/66
f 72/72/72 71/71/71 70/70/70
f 73/73/73 70/70/70 71/71/71
f 73/73/73 74/74/74 70/70/70
f 75/75/75 70/70/70 74/74/74
f 78/78/78 77/77/77 76/76/76
f 79/79/79 76/76/76 77/77/77
f 82/82/82 81/81/81 80/80/80
f 81/81/81 83/83/83 80/80/80
f 83/83/83 84/84/84 80/80/80
f 85/85/85 84/84/84 83/83/83
f 84/84/84 86/86/86 80/80/80
f 89/89/89 88/88/88 87/87/87
f 90/90/90 87/87/87 88/88/88
f 93/93/93 92/92/92 91/91/91
f 94/94/94 91/91/91 92/92/92
f 97/97/97 96/96/96 95/95/95
f 98/98/98 95/95/95 96/96/96
f 101/101/101 100/100/100 99/99/99
f 102/102/102 99/99/99 100/100/100
f 105/105/105 104/104/104 103/103/103
f 106/106/106 103/103/103 104/104/104
f 109/109/109 108/108/108 107/107/107
f 110/110/110 107/107/107 108/108/108
f 113/113/113 112/112/112 111/111/111
f 114/114/114 111/111/111 112/112/112
f 117/117/117 116/116/116 115/115/115
f 120/120/120 119/119/119 118/118/118
f 123/123/123 122/122/122 121/121/121
f 126/126/126 125/125/125 124/124/124
f 129/129/129 128/128/128 127/127/127
f 130/130/130 127/127/127 128/128/128
f 133/133/133 132/132/132 131/131/131
f 136/136/136 135/135/135 134/134/134
f 139/139/139 138/138/138 137/137/137
f 142/142/142 141/141/141 140/140/140
f 145/145/145 144/144/144 143/143/143
f 146/146/146 143/143/143 144/144/144
f 149/149/149 148/148/148 147/147/147
f 152/152/152 151/151/151 150/150/150
f 155/155/155 154/154/154 153/153/153
f 158/158/158 157/157/157 156/156/156
f 161/161/161 160/160/160 159/159/159
f 162/162/162 159/159/159 160/160/160
f 165/165/165 164/164/164 163/163/163
f 168/168/168 167/167/167 166/166/166
f 171/171/171 170/170/170 169/169/169
f 174/174/174 173/173/173 172/172/172
