# Export of Prefab Tower-Weapon
# from Aaro4130 OBJ Exporter v2.0
mtllib magebase.mtl
v 3.289484E-07 0.0003653467 -0.9377613
v 0.468881 0.2342715 -0.8121249
v 3.342409E-07 0.2342715 -0.9377613
v 0.468881 0.0003653243 -0.8121249
v 0.8121253 0.2342714 -0.4688803
v 0.8121253 0.0003652871 -0.4688803
v 0.8121253 0.0003652871 -0.4688803
v 0.9377614 0.2342714 5.053834E-07
v 0.8121253 0.2342714 -0.4688803
v 0.9377614 0.0003652424 4.856315E-07
v 0.8121251 0.2342713 0.468881
v 0.8121251 0.0003652051 0.468881
v 0.4688806 0.2342713 0.8121254
v 0.4688806 0.0003651828 0.8121254
v 0.4688806 0.0003651828 0.8121254
v -3.438496E-07 0.2342713 0.9377615
v 0.4688806 0.2342713 0.8121254
v -3.491421E-07 0.0003651828 0.9377615
v 0.4688806 0.2342713 0.8121254
v 0.9377614 0.2342714 5.053834E-07
v 0.8121251 0.2342713 0.468881
v -3.438496E-07 0.2342713 0.9377615
v 0.468881 0.2342715 -0.8121249
v 0.8121253 0.2342714 -0.4688803
v 3.342409E-07 0.2342715 -0.9377613
v 3.289484E-07 0.0003653467 -0.9377613
v -0.4688805 0.2342715 -0.8121254
v -0.4688805 0.0003653467 -0.8121254
v 3.342409E-07 0.2342715 -0.9377613
v -0.4688805 0.0003653467 -0.8121254
v -0.8121251 0.2342715 -0.468881
v -0.8121251 0.0003653243 -0.468881
v -0.4688805 0.2342715 -0.8121254
v -0.9377615 0.2342714 -1.727071E-07
v -0.9377615 0.0003652871 -1.924591E-07
v -0.8121256 0.2342714 0.4688805
v -0.8121256 0.0003652424 0.4688805
v -0.8121256 0.0003652424 0.4688805
v -0.4688812 0.2342713 0.8121253
v -0.4688812 0.0003652051 0.8121253
v -0.8121256 0.2342714 0.4688805
v -3.438496E-07 0.2342713 0.9377615
v -3.491421E-07 0.0003651828 0.9377615
v -3.438496E-07 0.2342713 0.9377615
v -0.4688805 0.2342715 -0.8121254
v 3.342409E-07 0.2342715 -0.9377613
v -0.9377615 0.2342714 -1.727071E-07
v -0.8121251 0.2342715 -0.468881
v -0.4688812 0.2342713 0.8121253
v -0.8121256 0.2342714 0.4688805
v 1.034977E-07 0.2328831 -0.4982916
v 1.262527E-07 0.1160757 -0.7487858
v -0.1381948 0.1744794 -0.6235387
v 0.138195 0.1744794 -0.6235387
v 1.262527E-07 0.1160757 -0.7487858
v 1.933527E-07 1.477771 -1.231273
v -0.1381948 0.1744794 -0.6235387
v -0.1381948 0.1744794 -0.6235387
v 1.933527E-07 1.477771 -1.231273
v 1.034977E-07 0.2328831 -0.4982916
v 1.034977E-07 0.2328831 -0.4982916
v 1.933527E-07 1.477771 -1.231273
v 0.138195 0.1744794 -0.6235387
v 0.138195 0.1744794 -0.6235387
v 1.933527E-07 1.477771 -1.231273
v 1.262527E-07 0.1160757 -0.7487858
v 0.4982916 0.2328831 1.846797E-07
v 0.7487858 0.1160757 2.482454E-07
v 0.6235387 0.1744794 -0.1381947
v 0.6235386 0.1744794 0.1381951
v 0.7487858 0.1160757 2.482454E-07
v 1.231273 1.477771 3.939526E-07
v 0.6235387 0.1744794 -0.1381947
v 0.6235387 0.1744794 -0.1381947
v 1.231273 1.477771 3.939526E-07
v 0.4982916 0.2328831 1.846797E-07
v 0.4982916 0.2328831 1.846797E-07
v 1.231273 1.477771 3.939526E-07
v 0.6235386 0.1744794 0.1381951
v 0.6235386 0.1744794 0.1381951
v 1.231273 1.477771 3.939526E-07
v 0.7487858 0.1160757 2.482454E-07
v -2.658616E-07 0.2328831 0.4982916
v -3.702381E-07 0.1160757 0.7487858
v 0.1381946 0.1744794 0.6235387
v -0.1381952 0.1744794 0.6235386
v -3.702381E-07 0.1160757 0.7487858
v -5.945525E-07 1.477771 1.231273
v 0.1381946 0.1744794 0.6235387
v 0.1381946 0.1744794 0.6235387
v -5.945525E-07 1.477771 1.231273
v -2.658616E-07 0.2328831 0.4982916
v -2.658616E-07 0.2328831 0.4982916
v -5.945525E-07 1.477771 1.231273
v -0.1381952 0.1744794 0.6235386
v -0.1381952 0.1744794 0.6235386
v -5.945525E-07 1.477771 1.231273
v -3.702381E-07 0.1160757 0.7487858
v -0.4982916 0.2328831 -2.231566E-08
v -0.7487858 0.1160757 -4.260049E-09
v -0.6235387 0.1744794 0.1381949
v -0.6235387 0.1744794 -0.1381949
v -0.7487858 0.1160757 -4.260049E-09
v -1.231273 1.477771 7.247166E-09
v -0.6235387 0.1744794 0.1381949
v -0.6235387 0.1744794 0.1381949
v -1.231273 1.477771 7.247166E-09
v -0.4982916 0.2328831 -2.231566E-08
v -0.4982916 0.2328831 -2.231566E-08
v -1.231273 1.477771 7.247166E-09
v -0.6235387 0.1744794 -0.1381949
v -0.6235387 0.1744794 -0.1381949
v -1.231273 1.477771 7.247166E-09
v -0.7487858 0.1160757 -4.260049E-09
vn 0 0 -1
vn 0.3785815 0.6532267 -0.6557217
vn 0 0.6532269 -0.7571623
vn 0.5000004 0 -0.8660253
vn 0.6557219 0.6532269 -0.3785809
vn 0.8660256 0 -0.4999997
vn 0.8660256 0 -0.4999997
vn 0.7571624 0.6532268 0
vn 0.6557219 0.6532269 -0.3785809
vn 1 0 0
vn 0.6557217 0.6532268 0.3785814
vn 0.8660253 0 0.5000002
vn 0.378581 0.6532267 0.6557219
vn 0.4999999 0 0.8660255
vn 0.4999999 0 0.8660255
vn 0 0.6532268 0.7571623
vn 0.378581 0.6532267 0.6557219
vn 0 0 1
vn 0.378581 0.6532267 0.6557219
vn 0.7571624 0.6532268 0
vn 0.6557217 0.6532268 0.3785814
vn 0 0.6532268 0.7571623
vn 0.3785815 0.6532267 -0.6557217
vn 0.6557219 0.6532269 -0.3785809
vn 0 0.6532269 -0.7571623
vn 0 0 -1
vn -0.3785809 0.6532267 -0.655722
vn -0.4999996 0 -0.8660256
vn 0 0.6532269 -0.7571623
vn -0.4999996 0 -0.8660256
vn -0.6557217 0.6532267 -0.3785814
vn -0.8660253 0 -0.5000002
vn -0.3785809 0.6532267 -0.655722
vn -0.7571622 0.6532269 0
vn -1 0 0
vn -0.655722 0.6532267 0.3785808
vn -0.8660257 0 0.4999995
vn -0.8660257 0 0.4999995
vn -0.3785814 0.6532267 0.6557217
vn -0.5000003 0 0.8660253
vn -0.655722 0.6532267 0.3785808
vn 0 0.6532268 0.7571623
vn 0 0 1
vn 0 0.6532268 0.7571623
vn -0.3785809 0.6532267 -0.655722
vn 0 0.6532269 -0.7571623
vn -0.7571622 0.6532269 0
vn -0.6557217 0.6532267 -0.3785814
vn -0.3785814 0.6532267 0.6557217
vn -0.655722 0.6532267 0.3785808
vn 0 -0.1357851 0.9907383
vn 0 -0.8462306 -0.5328169
vn -0.8405285 -0.4910078 0.2289608
vn 0.8405285 -0.4910078 0.2289608
vn 0 -0.8462306 -0.5328169
vn -0.7054799 -0.2367036 -0.6680341
vn -0.8405285 -0.4910078 0.2289608
vn -0.8405285 -0.4910078 0.2289608
vn -0.7054799 0.3595937 0.6107294
vn 0 -0.1357851 0.9907383
vn 0 -0.1357851 0.9907383
vn 0.7054799 0.3595936 0.6107295
vn 0.8405285 -0.4910078 0.2289608
vn 0.8405285 -0.4910078 0.2289608
vn 0.70548 -0.2367037 -0.668034
vn 0 -0.8462306 -0.5328169
vn -0.9907383 -0.1357851 0
vn 0.5328168 -0.8462306 0
vn -0.2289605 -0.4910078 -0.8405287
vn -0.2289611 -0.4910079 0.8405285
vn 0.5328168 -0.8462306 0
vn 0.6680342 -0.2367036 -0.7054797
vn -0.2289605 -0.4910078 -0.8405287
vn -0.2289605 -0.4910078 -0.8405287
vn -0.6107292 0.3595937 -0.7054801
vn -0.9907383 -0.1357851 0
vn -0.9907383 -0.1357851 0
vn -0.6107297 0.3595936 0.7054797
vn -0.2289611 -0.4910079 0.8405285
vn -0.2289611 -0.4910079 0.8405285
vn 0.6680337 -0.2367036 0.7054801
vn 0.5328168 -0.8462306 0
vn 0 -0.1357851 -0.9907383
vn 0 -0.8462306 0.5328168
vn 0.8405287 -0.4910078 -0.2289604
vn -0.8405284 -0.4910079 -0.2289611
vn 0 -0.8462306 0.5328168
vn 0.7054796 -0.2367036 0.6680343
vn 0.8405287 -0.4910078 -0.2289604
vn 0.8405287 -0.4910078 -0.2289604
vn 0.7054801 0.3595937 -0.6107292
vn 0 -0.1357851 -0.9907383
vn 0 -0.1357851 -0.9907383
vn -0.7054797 0.3595936 -0.6107298
vn -0.8405284 -0.4910079 -0.2289611
vn -0.8405284 -0.4910079 -0.2289611
vn -0.7054802 -0.2367037 0.6680337
vn 0 -0.8462306 0.5328168
vn 0.9907383 -0.135785 0
vn -0.5328169 -0.8462306 0
vn 0.2289607 -0.4910077 0.8405285
vn 0.2289607 -0.4910078 -0.8405285
vn -0.5328169 -0.8462306 0
vn -0.668034 -0.2367036 0.7054799
vn 0.2289607 -0.4910077 0.8405285
vn 0.2289607 -0.4910077 0.8405285
vn 0.6107295 0.3595936 0.7054799
vn 0.9907383 -0.135785 0
vn 0.9907383 -0.135785 0
vn 0.6107295 0.3595936 -0.7054799
vn 0.2289607 -0.4910078 -0.8405285
vn 0.2289607 -0.4910078 -0.8405285
vn -0.668034 -0.2367037 -0.7054799
vn -0.5328169 -0.8462306 0
vt 0.004061155 0.8739758
vt 0.1228242 0.9311333
vt 0.004061324 0.9311337
vt 0.1228241 0.8739756
vt 0.2415867 0.9311331
vt 0.2415866 0.8739756
vt 0.2415866 0.8739756
vt 0.3603487 0.9311326
vt 0.2415867 0.9311331
vt 0.3603487 0.8739754
vt 0.4791107 0.9311327
vt 0.4791107 0.8739754
vt 0.5978728 0.9311331
vt 0.5978731 0.8739756
vt 0.5978731 0.8739756
vt 0.716635 0.9311337
vt 0.5978728 0.9311331
vt 0.7166353 0.8739761
vt 0.3306038 0.7103055
vt 0.1810573 0.6239646
vt 0.267398 0.6470996
vt 0.3537388 0.7966462
vt 0.0315107 0.7103054
vt 0.09471652 0.6470996
vt 0.008375732 0.7966462
vt 0.004061155 0.8739758
vt 0.1228242 0.9311333
vt 0.1228241 0.8739756
vt 0.004061324 0.9311337
vt 0.1228241 0.8739756
vt 0.2415867 0.9311331
vt 0.2415866 0.8739756
vt 0.1228242 0.9311333
vt 0.3603487 0.9311326
vt 0.3603487 0.8739754
vt 0.4791107 0.9311327
vt 0.4791107 0.8739754
vt 0.4791107 0.8739754
vt 0.5978728 0.9311331
vt 0.5978731 0.8739756
vt 0.4791107 0.9311327
vt 0.716635 0.9311337
vt 0.7166353 0.8739761
vt 0.3537388 0.7966462
vt 0.0315107 0.7103054
vt 0.008375732 0.7966462
vt 0.1810573 0.6239646
vt 0.09471652 0.6470996
vt 0.3306038 0.7103055
vt 0.267398 0.6470996
vt 0.07219999 0.4188015
vt 0.1204955 0.4188015
vt 0.09634774 0.4188015
vt 0.04805201 0.4188015
vt 0.1204955 0.4188015
vt 0.07156413 0.08164656
vt 0.09634774 0.4188015
vt 0.09634774 0.4188015
vt 0.07156413 0.08164656
vt 0.07219999 0.4188015
vt 0.07219999 0.4188015
vt 0.07156413 0.08164656
vt 0.04805201 0.4188015
vt 0.04805201 0.4188015
vt 0.07156413 0.08164656
vt 0.02390424 0.4188014
vt 0.07219999 0.4188015
vt 0.1204955 0.4188015
vt 0.09634774 0.4188015
vt 0.04805201 0.4188015
vt 0.1204955 0.4188015
vt 0.07156413 0.08164656
vt 0.09634774 0.4188015
vt 0.09634774 0.4188015
vt 0.07156413 0.08164656
vt 0.07219999 0.4188015
vt 0.07219999 0.4188015
vt 0.07156413 0.08164656
vt 0.04805201 0.4188015
vt 0.04805201 0.4188015
vt 0.07156413 0.08164656
vt 0.02390424 0.4188014
vt 0.07219999 0.4188015
vt 0.1204955 0.4188015
vt 0.09634774 0.4188015
vt 0.04805201 0.4188015
vt 0.1204955 0.4188015
vt 0.07156413 0.08164656
vt 0.09634774 0.4188015
vt 0.09634774 0.4188015
vt 0.07156413 0.08164656
vt 0.07219999 0.4188015
vt 0.07219999 0.4188015
vt 0.07156413 0.08164656
vt 0.04805201 0.4188015
vt 0.04805201 0.4188015
vt 0.07156413 0.08164656
vt 0.02390424 0.4188014
vt 0.07219999 0.4188015
vt 0.1204955 0.4188015
vt 0.09634774 0.4188015
vt 0.04805201 0.4188015
vt 0.1204955 0.4188015
vt 0.07156413 0.08164656
vt 0.09634774 0.4188015
vt 0.09634774 0.4188015
vt 0.07156413 0.08164656
vt 0.07219999 0.4188015
vt 0.07219999 0.4188015
vt 0.07156413 0.08164656
vt 0.04805201 0.4188015
vt 0.04805201 0.4188015
vt 0.07156413 0.08164656
vt 0.02390424 0.4188014
usemtl Crystal
f 3/3/3 2/2/2 1/1/1
f 4/4/4 1/1/1 2/2/2
f 2/2/2 5/5/5 4/4/4
f 6/6/6 4/4/4 5/5/5
f 9/9/9 8/8/8 7/7/7
f 10/10/10 7/7/7 8/8/8
f 8/8/8 11/11/11 10/10/10
f 12/12/12 10/10/10 11/11/11
f 11/11/11 13/13/13 12/12/12
f 14/14/14 12/12/12 13/13/13
f 17/17/17 16/16/16 15/15/15
f 18/18/18 15/15/15 16/16/16
f 21/21/21 20/20/20 19/19/19
f 19/19/19 20/20/20 22/22/22
f 20/20/20 23/23/23 22/22/22
f 24/24/24 23/23/23 20/20/20
f 23/23/23 25/25/25 22/22/22
f 28/28/28 27/27/27 26/26/26
f 29/29/29 26/26/26 27/27/27
f 32/32/32 31/31/31 30/30/30
f 33/33/33 30/30/30 31/31/31
f 31/31/31 32/32/32 34/34/34
f 35/35/35 34/34/34 32/32/32
f 34/34/34 35/35/35 36/36/36
f 37/37/37 36/36/36 35/35/35
f 40/40/40 39/39/39 38/38/38
f 41/41/41 38/38/38 39/39/39
f 39/39/39 40/40/40 42/42/42
f 43/43/43 42/42/42 40/40/40
f 46/46/46 45/45/45 44/44/44
f 45/45/45 47/47/47 44/44/44
f 48/48/48 47/47/47 45/45/45
f 47/47/47 49/49/49 44/44/44
f 50/50/50 49/49/49 47/47/47
f 53/53/53 52/52/52 51/51/51
f 54/54/54 51/51/51 52/52/52
f 57/57/57 56/56/56 55/55/55
f 60/60/60 59/59/59 58/58/58
f 63/63/63 62/62/62 61/61/61
f 66/66/66 65/65/65 64/64/64
f 69/69/69 68/68/68 67/67/67
f 70/70/70 67/67/67 68/68/68
f 73/73/73 72/72/72 71/71/71
f 76/76/76 75/75/75 74/74/74
f 79/79/79 78/78/78 77/77/77
f 82/82/82 81/81/81 80/80/80
f 85/85/85 84/84/84 83/83/83
f 86/86/86 83/83/83 84/84/84
f 89/89/89 88/88/88 87/87/87
f 92/92/92 91/91/91 90/90/90
f 95/95/95 94/94/94 93/93/93
f 98/98/98 97/97/97 96/96/96
f 101/101/101 100/100/100 99/99/99
f 102/102/102 99/99/99 100/100/100
f 105/105/105 104/104/104 103/103/103
f 108/108/108 107/107/107 106/106/106
f 111/111/111 110/110/110 109/109/109
f 114/114/114 113/113/113 112/112/112
