# Export of Prefab_Vegetation
# from Aaro4130 OBJ Exporter v2.0
mtllib plant_4.mtl
v 0.9346179 0.3782096 1.031348
v 1.09386 0.3404482 0.03889341
v 1.404706 0.3295347 0.21955
v 0.623771 0.3891232 0.8506916
v 0.7856991 0.2780159 -0.1358099
v 0.3156104 0.3266908 0.6759883
v 0.49314 0.1448542 -0.2972381
v 0.02305141 0.1935291 0.5145603
v 0.2284431 -0.05345608 -0.4386256
v -0.2416455 -0.00478117 0.3731727
v -0.8912596 0.09266052 1.107025
v 0.1118519 0.1551176 1.06681
v 0.001234906 0.07434142 1.399407
v -0.7806426 0.1734369 0.7744278
v 0.2239503 0.1628373 0.7251136
v -0.6685441 0.1811564 0.4327316
v 0.332832 0.09717661 0.3886387
v -0.5596625 0.1154958 0.09625685
v 0.4339339 -0.03911249 0.07148653
v -0.4585607 -0.02079332 -0.2208954
v 1.35767 0.4179615 -0.5305478
v 0.4852595 0.4396683 -1.030728
v 0.7632788 0.4179617 -1.257919
v 1.079651 0.4396682 -0.3033568
v 0.2096429 0.3878043 -0.8054998
v 0.8040339 0.3878042 -0.07812905
v -0.05201997 0.2645432 -0.5916749
v 0.5423713 0.2645431 0.1356958
v -0.288763 0.07505082 -0.3982139
v 0.3056282 0.07505067 0.3291571
v 0.06990366 0.1130938 -1.488176
v -0.7106339 0.2454061 -0.8676877
v -0.8226932 0.1737102 -1.20188
v 0.1819629 0.1847898 -1.153984
v -0.6008642 0.243976 -0.5251523
v 0.2917325 0.1833597 -0.8114485
v -0.497985 0.1694799 -0.1886289
v 0.3946118 0.1088635 -0.4749252
v -0.4063074 0.02503972 0.1277792
v 0.4862895 -0.03557666 -0.158517
v -1.253086 0.3053299 -0.7930282
v -1.094032 0.3373068 0.1996601
v -1.443167 0.2906928 0.1267674
v -0.9039508 0.351944 -0.7201355
v -0.742686 0.3103215 0.2718383
v -0.5526048 0.3249586 -0.6479571
v -0.4038543 0.2108676 0.3402773
v -0.2137732 0.2255048 -0.5795182
v -0.09173697 0.04311337 0.4021087
v 0.09834426 0.05775046 -0.517687
v 0.9368722 0.8891449 0.3468721
v 0.7093254 0.8513834 -0.3377787
v 0.96711 0.84047 -0.3257838
v 0.6790877 0.9000585 0.3348772
v 0.4552245 0.7889512 -0.3468736
v 0.4249867 0.8376261 0.3257822
v 0.2154562 0.6557895 -0.3526874
v 0.1852186 0.7044644 0.3199686
v 6.936383E-05 0.4574792 -0.3549763
v -0.03016831 0.5061541 0.3176797
v -0.2005397 0.6035959 1.00021
v 0.4247895 0.6660529 0.6421415
v 0.4645959 0.5852767 0.8905603
v -0.240346 0.6843722 0.7517909
v 0.3829105 0.6737726 0.3874384
v -0.2822249 0.6920918 0.4970877
v 0.3407141 0.6081119 0.1371257
v -0.3244214 0.6264311 0.2467751
v 0.2999686 0.4718228 -0.09830621
v -0.365167 0.490142 0.01134321
v 0.6885557 0.9288968 -0.7877641
v -0.0326637 0.9506036 -0.8170712
v 0.06904603 0.928897 -1.053863
v 0.5868459 0.9506035 -0.5509721
v -0.1334945 0.8987396 -0.5823256
v 0.4860151 0.8987395 -0.3162263
v -0.2292205 0.7754785 -0.3594645
v 0.3902892 0.7754784 -0.09336538
v -0.3158299 0.5859861 -0.1578279
v 0.3036799 0.585986 0.1082713
v -0.4487245 0.6240291 -0.9706551
v -0.7400244 0.7563414 -0.316909
v -0.9221321 0.6846455 -0.492541
v -0.2666169 0.6957251 -0.7950232
v -0.556609 0.7549113 -0.135206
v -0.08320151 0.694295 -0.6133201
v -0.3795733 0.6804152 0.04495309
v 0.09383424 0.6197988 -0.4331612
v -0.2163362 0.535975 0.2160178
v 0.2570714 0.4753586 -0.2620965
v -1.060646 0.8162652 -0.08958849
v -0.6303707 0.8482422 0.4897172
v -0.8768162 0.8016282 0.5590232
v -0.8142011 0.8628793 -0.1588943
v -0.3827547 0.8212568 0.4192238
v -0.5665849 0.8358939 -0.2293877
v -0.1443455 0.7218029 0.3504973
v -0.3281759 0.7364401 -0.2981142
v 0.07486533 0.5540487 0.2864179
v -0.1089651 0.5686858 -0.3621937
v 0.6743064 1.317973 -0.1585095
v 0.280488 1.280212 -0.4669735
v 0.4340532 1.269298 -0.5588116
v 0.5207411 1.328887 -0.06667144
v 0.1301625 1.217779 -0.374871
v 0.3704157 1.266454 0.02543118
v -0.01062306 1.084618 -0.2863639
v 0.2296302 1.133293 0.1139383
v -0.1359685 0.8863075 -0.2051615
v 0.1042847 0.9349824 0.1951407
v 0.2673402 1.032424 0.6548409
v 0.4915142 1.094881 0.2083255
v 0.609699 1.014105 0.3366309
v 0.1491555 1.1132 0.5265356
v 0.369724 1.102601 0.07718265
v 0.0273653 1.12092 0.3953927
v 0.2494325 1.03694 -0.05130141
v -0.09292621 1.055259 0.2669088
v 0.135681 0.900651 -0.171742
v -0.2066778 0.9189702 0.1464682
v 0.09607434 1.357725 -0.7190548
v -0.3319353 1.379432 -0.4596568
v -0.3638855 1.357725 -0.6354649
v 0.1280244 1.379432 -0.5432466
v -0.3002613 1.327568 -0.285368
v 0.1596984 1.327568 -0.3689578
v -0.2701909 1.204307 -0.1199031
v 0.1897689 1.204307 -0.203493
v -0.2429843 1.014814 0.02980359
v 0.2169755 1.014814 -0.05378627
v -0.6312153 1.052857 -0.3889973
v -0.549071 1.18517 0.1004027
v -0.7216011 1.113474 0.06868225
v -0.4586853 1.124553 -0.3572768
v -0.373459 1.18374 0.1351306
v -0.2830734 1.123123 -0.3225489
v -0.2021254 1.109243 0.1714105
v -0.1117398 1.048627 -0.2862691
v -0.04225024 0.9648033 0.2077219
v 0.04813544 0.9041869 -0.2499577
v -0.6472555 1.245093 0.3546133
v -0.1766463 1.27707 0.524525
v -0.2925086 1.230456 0.6590009
v -0.5313933 1.291708 0.2201375
v -0.06056261 1.250085 0.3889143
v -0.4153095 1.264722 0.0845268
v 0.05087765 1.150631 0.2578523
v -0.3038694 1.165268 -0.04653519
v 0.153004 0.9828769 0.1368316
v -0.201743 0.997514 -0.1675559
vn 0.0522467 0.9981956 -0.02959671
vn -0.03648531 0.9960582 -0.08085065
vn 0.05224636 0.9981956 -0.02959677
vn -0.03648521 0.9960582 -0.08085063
vn -0.2118709 0.9605257 -0.1802809
vn -0.2118711 0.9605256 -0.1802808
vn -0.3783772 0.8847384 -0.2721556
vn -0.3783773 0.8847384 -0.2721556
vn -0.4560974 0.8326791 -0.3140395
vn -0.4560973 0.8326791 -0.3140395
vn -0.05186655 0.9742632 0.2193649
vn -0.02011592 0.9921325 0.1235658
vn -0.05186658 0.9742633 0.2193645
vn -0.02011591 0.9921325 0.1235659
vn 0.0436835 0.9965259 -0.07090623
vn 0.0436835 0.9965259 -0.07090639
vn 0.1056521 0.959156 -0.2624067
vn 0.1056521 0.959156 -0.2624067
vn 0.1351323 0.9252322 -0.3545204
vn 0.1351323 0.9252322 -0.3545204
vn 0.04672917 0.9981774 -0.03818592
vn -0.03263199 0.9991116 0.02666628
vn 0.04672903 0.9981774 -0.03818566
vn -0.03263196 0.9991116 0.02666623
vn -0.1894957 0.9695939 0.1548518
vn -0.1894958 0.9695939 0.1548519
vn -0.3384179 0.8994413 0.2765477
vn -0.3384178 0.8994413 0.2765477
vn -0.4079301 0.8499821 0.3333516
vn -0.4079301 0.8499823 0.3333515
vn -0.0007956126 0.9778067 -0.2095074
vn 0.03109726 0.9930734 -0.1133063
vn -0.0007953247 0.9778069 -0.2095071
vn 0.03109717 0.9930734 -0.1133064
vn 0.09357113 0.9922594 0.08164344
vn 0.09357124 0.9922594 0.08164357
vn 0.1521237 0.9498609 0.2731715
vn 0.1521237 0.9498609 0.2731716
vn 0.1791532 0.9135562 0.3651292
vn 0.1791532 0.9135562 0.3651292
vn -0.1300535 0.9914449 -0.01109897
vn -0.03001719 0.9995023 0.00970232
vn -0.1300531 0.9914449 -0.01109902
vn -0.03001729 0.9995023 0.00970234
vn 0.1699468 0.984144 0.05078171
vn 0.169947 0.9841439 0.05078168
vn 0.3627888 0.9275411 0.0897328
vn 0.3627888 0.927541 0.08973279
vn 0.4539921 0.8844489 0.1078948
vn 0.453992 0.884449 0.1078948
vn 0.04544837 0.9965064 -0.0700666
vn -0.0960928 0.9924563 -0.07613616
vn 0.04544782 0.9965065 -0.07006643
vn -0.09547405 0.9925177 -0.07611283
vn -0.3628531 0.9281003 -0.08347084
vn -0.3608454 0.9288858 -0.08343731
vn -0.5837041 0.8075393 -0.08467447
vn -0.5811986 0.8093426 -0.08469228
vn -0.6745023 0.7335467 -0.08340176
vn -0.6745024 0.7335467 -0.08340174
vn 0.07524505 0.9517758 0.297424
vn 0.05401145 0.9851388 0.1630468
vn 0.07524478 0.951776 0.2974236
vn 0.05394961 0.9852062 0.16266
vn 0.008498298 0.9933964 -0.1144168
vn 0.008541577 0.9934258 -0.1141588
vn -0.03643512 0.9260143 -0.3757258
vn -0.03630099 0.9263281 -0.3749645
vn -0.05731292 0.8682941 -0.4927276
vn -0.0573129 0.8682941 -0.4927276
vn 0.03312493 0.9964715 -0.07711831
vn -0.022927 0.9983112 0.05337721
vn 0.03312491 0.9964716 -0.07711773
vn -0.02292699 0.9983113 0.05337694
vn -0.1298388 0.944335 0.30228
vn -0.1298388 0.944335 0.3022802
vn -0.2199772 0.8302591 0.5121328
vn -0.2199772 0.830259 0.5121328
vn -0.2579348 0.7568793 0.6005026
vn -0.2579347 0.7568794 0.6005025
vn -0.1330402 0.9582183 -0.2532156
vn -0.03294091 0.9869308 -0.1577419
vn -0.1330398 0.9582183 -0.2532154
vn -0.03368862 0.9867899 -0.1584643
vn 0.1655858 0.9854231 0.03902178
vn 0.1663707 0.9852589 0.03981966
vn 0.345069 0.9109161 0.2261841
vn 0.3468979 0.9097316 0.2281452
vn 0.4244432 0.8498098 0.312524
vn 0.424443 0.8498098 0.312524
vn -0.1665271 0.983592 0.06939394
vn -0.03051488 0.9990475 0.03119392
vn -0.1665267 0.983592 0.06939366
vn -0.03044596 0.9990501 0.03117453
vn 0.2372938 0.9703785 -0.04535565
vn 0.2368795 0.9704853 -0.04523586
vn 0.472998 0.8736123 -0.114343
vn 0.4723116 0.8740103 -0.1141396
vn 0.57434 0.8057452 -0.1445971
vn 0.5743399 0.8057452 -0.1445971
vn -0.00120624 0.992774 -0.1199931
vn -0.1731123 0.9847746 -0.0158458
vn -0.001206908 0.9927741 -0.1199922
vn -0.1707972 0.9851546 -0.01728161
vn -0.4656801 0.8676816 0.1739853
vn -0.4598596 0.8715631 0.1700202
vn -0.6542459 0.6904038 0.308715
vn -0.649264 0.6967494 0.3049535
vn -0.7165341 0.5991587 0.3571942
vn -0.7165341 0.5991586 0.3571942
vn 0.312012 0.9067988 0.2834862
vn 0.189141 0.9707925 0.1476067
vn 0.3120115 0.9067991 0.283486
vn 0.1880159 0.9711977 0.1463729
vn -0.07845772 0.9868637 -0.141225
vn -0.07766905 0.9870455 -0.1403869
vn -0.3158799 0.8650949 -0.3896546
vn -0.3140135 0.8666353 -0.3877355
vn -0.4102745 0.7717732 -0.4858404
vn -0.4102746 0.7717731 -0.4858405
vn -0.02156198 0.9927022 -0.1186479
vn 0.01463992 0.9966426 0.08055585
vn -0.02156197 0.9927022 -0.1186479
vn 0.0146399 0.9966426 0.08055581
vn 0.0791643 0.8966492 0.4356066
vn 0.07916434 0.8966492 0.4356067
vn 0.1236177 0.7225141 0.6802148
vn 0.1236177 0.7225141 0.6802148
vn 0.13942 0.6261112 0.767168
vn 0.13942 0.6261113 0.767168
vn -0.3467308 0.9184939 -0.1901227
vn -0.157847 0.9743784 -0.1602221
vn -0.3467307 0.9184939 -0.1901227
vn -0.1622712 0.9735258 -0.1609828
vn 0.2211403 0.9715308 -0.08499988
vn 0.2258278 0.9705438 -0.08394343
vn 0.538377 0.8426875 -0.005285547
vn 0.5469429 0.8371651 -0.002862557
vn 0.6659081 0.7453126 0.03279667
vn 0.6659079 0.7453126 0.03279671
vn -0.1423859 0.9667468 0.212431
vn -0.0111267 0.9980781 0.06096221
vn -0.1423859 0.9667468 0.2124309
vn -0.01091625 0.9980952 0.06071794
vn 0.2383107 0.9429749 -0.2323929
vn 0.2371921 0.9435842 -0.2310599
vn 0.4232058 0.7831727 -0.4555627
vn 0.4218726 0.7848389 -0.4539288
vn 0.489793 0.6861785 -0.5378307
vn 0.489793 0.6861787 -0.5378305
vt 0.5947941 0.3883181
vt 0.6734721 0.4154516
vt 0.6734721 0.3883181
vt 0.5947941 0.4154516
vt 0.6734721 0.4425851
vt 0.5947941 0.4425851
vt 0.6734721 0.4697187
vt 0.5947941 0.4697187
vt 0.6734721 0.4968522
vt 0.5947941 0.4968522
vt 0.5947941 0.3883181
vt 0.6734721 0.4154516
vt 0.6734721 0.3883181
vt 0.5947941 0.4154516
vt 0.6734721 0.4425851
vt 0.5947941 0.4425851
vt 0.6734721 0.4697187
vt 0.5947941 0.4697187
vt 0.6734721 0.4968522
vt 0.5947941 0.4968522
vt 0.5947941 0.3883181
vt 0.6734721 0.4154516
vt 0.6734721 0.3883181
vt 0.5947941 0.4154516
vt 0.6734721 0.4425851
vt 0.5947941 0.4425851
vt 0.6734721 0.4697187
vt 0.5947941 0.4697187
vt 0.6734721 0.4968522
vt 0.5947941 0.4968522
vt 0.5947941 0.3883181
vt 0.6734721 0.4154516
vt 0.6734721 0.3883181
vt 0.5947941 0.4154516
vt 0.6734721 0.4425851
vt 0.5947941 0.4425851
vt 0.6734721 0.4697187
vt 0.5947941 0.4697187
vt 0.6734721 0.4968522
vt 0.5947941 0.4968522
vt 0.5947941 0.3883181
vt 0.6734721 0.4154516
vt 0.6734721 0.3883181
vt 0.5947941 0.4154516
vt 0.6734721 0.4425851
vt 0.5947941 0.4425851
vt 0.6734721 0.4697187
vt 0.5947941 0.4697187
vt 0.6734721 0.4968522
vt 0.5947941 0.4968522
vt 0.5947941 0.3883181
vt 0.6734721 0.4154516
vt 0.6734721 0.3883181
vt 0.5947941 0.4154516
vt 0.6734721 0.4425851
vt 0.5947941 0.4425851
vt 0.6734721 0.4697187
vt 0.5947941 0.4697187
vt 0.6734721 0.4968522
vt 0.5947941 0.4968522
vt 0.5947941 0.3883181
vt 0.6734721 0.4154516
vt 0.6734721 0.3883181
vt 0.5947941 0.4154516
vt 0.6734721 0.4425851
vt 0.5947941 0.4425851
vt 0.6734721 0.4697187
vt 0.5947941 0.4697187
vt 0.6734721 0.4968522
vt 0.5947941 0.4968522
vt 0.5947941 0.3883181
vt 0.6734721 0.4154516
vt 0.6734721 0.3883181
vt 0.5947941 0.4154516
vt 0.6734721 0.4425851
vt 0.5947941 0.4425851
vt 0.6734721 0.4697187
vt 0.5947941 0.4697187
vt 0.6734721 0.4968522
vt 0.5947941 0.4968522
vt 0.5947941 0.3883181
vt 0.6734721 0.4154516
vt 0.6734721 0.3883181
vt 0.5947941 0.4154516
vt 0.6734721 0.4425851
vt 0.5947941 0.4425851
vt 0.6734721 0.4697187
vt 0.5947941 0.4697187
vt 0.6734721 0.4968522
vt 0.5947941 0.4968522
vt 0.5947941 0.3883181
vt 0.6734721 0.4154516
vt 0.6734721 0.3883181
vt 0.5947941 0.4154516
vt 0.6734721 0.4425851
vt 0.5947941 0.4425851
vt 0.6734721 0.4697187
vt 0.5947941 0.4697187
vt 0.6734721 0.4968522
vt 0.5947941 0.4968522
vt 0.5947941 0.3883181
vt 0.6734721 0.4154516
vt 0.6734721 0.3883181
vt 0.5947941 0.4154516
vt 0.6734721 0.4425851
vt 0.5947941 0.4425851
vt 0.6734721 0.4697187
vt 0.5947941 0.4697187
vt 0.6734721 0.4968522
vt 0.5947941 0.4968522
vt 0.5947941 0.3883181
vt 0.6734721 0.4154516
vt 0.6734721 0.3883181
vt 0.5947941 0.4154516
vt 0.6734721 0.4425851
vt 0.5947941 0.4425851
vt 0.6734721 0.4697187
vt 0.5947941 0.4697187
vt 0.6734721 0.4968522
vt 0.5947941 0.4968522
vt 0.5947941 0.3883181
vt 0.6734721 0.4154516
vt 0.6734721 0.3883181
vt 0.5947941 0.4154516
vt 0.6734721 0.4425851
vt 0.5947941 0.4425851
vt 0.6734721 0.4697187
vt 0.5947941 0.4697187
vt 0.6734721 0.4968522
vt 0.5947941 0.4968522
vt 0.5947941 0.3883181
vt 0.6734721 0.4154516
vt 0.6734721 0.3883181
vt 0.5947941 0.4154516
vt 0.6734721 0.4425851
vt 0.5947941 0.4425851
vt 0.6734721 0.4697187
vt 0.5947941 0.4697187
vt 0.6734721 0.4968522
vt 0.5947941 0.4968522
vt 0.5947941 0.3883181
vt 0.6734721 0.4154516
vt 0.6734721 0.3883181
vt 0.5947941 0.4154516
vt 0.6734721 0.4425851
vt 0.5947941 0.4425851
vt 0.6734721 0.4697187
vt 0.5947941 0.4697187
vt 0.6734721 0.4968522
vt 0.5947941 0.4968522
usemtl Plants01
f 3/3/3 2/2/2 1/1/1
f 4/4/4 1/1/1 2/2/2
f 2/2/2 5/5/5 4/4/4
f 6/6/6 4/4/4 5/5/5
f 5/5/5 7/7/7 6/6/6
f 8/8/8 6/6/6 7/7/7
f 7/7/7 9/9/9 8/8/8
f 10/10/10 8/8/8 9/9/9
f 13/13/13 12/12/12 11/11/11
f 14/14/14 11/11/11 12/12/12
f 12/12/12 15/15/15 14/14/14
f 16/16/16 14/14/14 15/15/15
f 15/15/15 17/17/17 16/16/16
f 18/18/18 16/16/16 17/17/17
f 17/17/17 19/19/19 18/18/18
f 20/20/20 18/18/18 19/19/19
f 23/23/23 22/22/22 21/21/21
f 24/24/24 21/21/21 22/22/22
f 22/22/22 25/25/25 24/24/24
f 26/26/26 24/24/24 25/25/25
f 25/25/25 27/27/27 26/26/26
f 28/28/28 26/26/26 27/27/27
f 27/27/27 29/29/29 28/28/28
f 30/30/30 28/28/28 29/29/29
f 33/33/33 32/32/32 31/31/31
f 34/34/34 31/31/31 32/32/32
f 32/32/32 35/35/35 34/34/34
f 36/36/36 34/34/34 35/35/35
f 35/35/35 37/37/37 36/36/36
f 38/38/38 36/36/36 37/37/37
f 37/37/37 39/39/39 38/38/38
f 40/40/40 38/38/38 39/39/39
f 43/43/43 42/42/42 41/41/41
f 44/44/44 41/41/41 42/42/42
f 42/42/42 45/45/45 44/44/44
f 46/46/46 44/44/44 45/45/45
f 45/45/45 47/47/47 46/46/46
f 48/48/48 46/46/46 47/47/47
f 47/47/47 49/49/49 48/48/48
f 50/50/50 48/48/48 49/49/49
f 53/53/53 52/52/52 51/51/51
f 54/54/54 51/51/51 52/52/52
f 52/52/52 55/55/55 54/54/54
f 56/56/56 54/54/54 55/55/55
f 55/55/55 57/57/57 56/56/56
f 58/58/58 56/56/56 57/57/57
f 57/57/57 59/59/59 58/58/58
f 60/60/60 58/58/58 59/59/59
f 63/63/63 62/62/62 61/61/61
f 64/64/64 61/61/61 62/62/62
f 62/62/62 65/65/65 64/64/64
f 66/66/66 64/64/64 65/65/65
f 65/65/65 67/67/67 66/66/66
f 68/68/68 66/66/66 67/67/67
f 67/67/67 69/69/69 68/68/68
f 70/70/70 68/68/68 69/69/69
f 73/73/73 72/72/72 71/71/71
f 74/74/74 71/71/71 72/72/72
f 72/72/72 75/75/75 74/74/74
f 76/76/76 74/74/74 75/75/75
f 75/75/75 77/77/77 76/76/76
f 78/78/78 76/76/76 77/77/77
f 77/77/77 79/79/79 78/78/78
f 80/80/80 78/78/78 79/79/79
f 83/83/83 82/82/82 81/81/81
f 84/84/84 81/81/81 82/82/82
f 82/82/82 85/85/85 84/84/84
f 86/86/86 84/84/84 85/85/85
f 85/85/85 87/87/87 86/86/86
f 88/88/88 86/86/86 87/87/87
f 87/87/87 89/89/89 88/88/88
f 90/90/90 88/88/88 89/89/89
f 93/93/93 92/92/92 91/91/91
f 94/94/94 91/91/91 92/92/92
f 92/92/92 95/95/95 94/94/94
f 96/96/96 94/94/94 95/95/95
f 95/95/95 97/97/97 96/96/96
f 98/98/98 96/96/96 97/97/97
f 97/97/97 99/99/99 98/98/98
f 100/100/100 98/98/98 99/99/99
f 103/103/103 102/102/102 101/101/101
f 104/104/104 101/101/101 102/102/102
f 102/102/102 105/105/105 104/104/104
f 106/106/106 104/104/104 105/105/105
f 105/105/105 107/107/107 106/106/106
f 108/108/108 106/106/106 107/107/107
f 107/107/107 109/109/109 108/108/108
f 110/110/110 108/108/108 109/109/109
f 113/113/113 112/112/112 111/111/111
f 114/114/114 111/111/111 112/112/112
f 112/112/112 115/115/115 114/114/114
f 116/116/116 114/114/114 115/115/115
f 115/115/115 117/117/117 116/116/116
f 118/118/118 116/116/116 117/117/117
f 117/117/117 119/119/119 118/118/118
f 120/120/120 118/118/118 119/119/119
f 123/123/123 122/122/122 121/121/121
f 124/124/124 121/121/121 122/122/122
f 122/122/122 125/125/125 124/124/124
f 126/126/126 124/124/124 125/125/125
f 125/125/125 127/127/127 126/126/126
f 128/128/128 126/126/126 127/127/127
f 127/127/127 129/129/129 128/128/128
f 130/130/130 128/128/128 129/129/129
f 133/133/133 132/132/132 131/131/131
f 134/134/134 131/131/131 132/132/132
f 132/132/132 135/135/135 134/134/134
f 136/136/136 134/134/134 135/135/135
f 135/135/135 137/137/137 136/136/136
f 138/138/138 136/136/136 137/137/137
f 137/137/137 139/139/139 138/138/138
f 140/140/140 138/138/138 139/139/139
f 143/143/143 142/142/142 141/141/141
f 144/144/144 141/141/141 142/142/142
f 142/142/142 145/145/145 144/144/144
f 146/146/146 144/144/144 145/145/145
f 145/145/145 147/147/147 146/146/146
f 148/148/148 146/146/146 147/147/147
f 147/147/147 149/149/149 148/148/148
f 150/150/150 148/148/148 149/149/149
