# Blender v2.77 (sub 0) OBJ File: ''
# www.blender.org
v 5.275205 7.023531 2.562156
v 5.754174 6.852007 3.456227
v 6.537234 6.452085 2.922303
v 4.838847 6.916389 3.921231
v 6.100878 6.344944 4.281380
v 6.375569 5.655192 5.069010
v 7.248281 5.869476 2.350859
v 4.724223 7.012368 1.630563
v 3.851510 6.798086 4.348714
v 4.946665 7.162839 0.948402
v 5.584108 7.138914 1.755425
v 6.275010 6.670722 1.154055
v 4.764603 7.263258 2.364644
v 6.092948 6.771142 2.570299
v 6.531774 6.216159 3.389445
v 6.895895 6.015320 0.556961
v 4.239203 6.999552 0.145651
v 3.875081 7.200394 2.978136
v 4.037782 7.761703 2.147938
v 4.883651 7.635147 2.719503
v 5.394177 7.410309 1.855209
v 4.272418 7.509935 3.537375
v 5.628812 7.158539 3.244646
v 6.319145 6.491346 3.744511
v 5.849874 6.994884 0.965641
v 3.137085 7.697675 1.551100
v 3.606357 7.194139 4.329971
v 3.179380 7.481708 1.358465
v 3.946063 7.549851 2.040922
v 4.599944 7.324451 1.279456
v 3.250937 7.410736 2.786338
v 4.671502 7.253479 2.707328
v 5.374484 6.758642 3.364994
v 5.231368 6.900587 0.509253
v 2.390240 7.215101 0.667270
v 2.533355 7.073156 3.523012
v 3.869514 7.443255 2.633541
v 4.025681 7.295742 3.639547
v 4.983050 6.994972 3.413320
v 3.004804 7.251285 3.757998
v 4.118341 6.803001 4.537776
v 4.176424 6.122299 5.377325
v 5.905839 6.506240 3.128414
v 3.678768 7.402807 1.568857
v 1.949351 7.018867 3.817769
v 2.381467 8.546394 -2.188049
v 3.446804 8.654507 -1.375369
v 4.224454 8.328197 -2.422204
v 2.612274 8.504368 -0.332247
v 4.455260 8.286174 -0.566402
v 5.432747 7.658435 0.240539
v 4.971134 7.742483 -3.471061
v 1.285162 8.178874 -3.002751
v 1.746776 8.094828 0.708850
v 1.136040 8.321882 -3.938240
v 2.281512 8.653062 -3.317523
v 2.946053 8.198031 -4.393818
v 1.606323 8.636135 -2.155234
v 3.416334 8.512285 -2.610811
v 4.545360 8.114548 -1.857286
v 3.604794 7.486038 -5.423296
v -0.015231 7.733741 -4.512138
v 0.925335 8.362252 -0.946127
v 0.475103 8.971615 -2.035261
v 1.778851 9.204152 -1.804503
v 2.010797 8.944712 -3.102952
v 1.543026 8.983809 -0.499543
v 3.078716 8.956904 -1.567233
v 4.376469 8.448434 -1.326423
v 2.240629 8.424047 -4.397858
v -0.830755 8.477855 -2.262475
v 1.305085 8.502245 0.808960
v -0.796915 8.188476 -2.509840
v 0.397678 8.656729 -2.108884
v 0.845562 8.463836 -3.361588
v 0.034738 8.377490 -0.845009
v 1.677217 8.652849 -1.696759
v 3.003002 8.391911 -1.278552
v 1.339698 8.013885 -4.608212
v -1.945258 7.463164 -2.904712
v -0.281955 7.841193 0.424948
v 0.651191 8.602520 -1.359256
v 1.395372 8.650085 -0.240769
v 2.489647 8.561749 -1.016551
v 0.306780 8.266498 0.448369
v 2.145239 8.225729 0.791074
v 2.898200 7.544428 1.775743
v 3.587018 8.216471 -1.839504
v -0.089894 8.298010 -2.524914
v -0.778715 7.625971 1.090335
v -2.986217 6.271582 -4.870496
v -2.697413 6.682799 -3.868070
v -1.626742 6.638496 -4.198317
v -3.691619 6.338443 -3.480327
v -2.332142 6.705359 -2.808149
v -1.925236 6.516312 -1.716926
v -0.514438 6.382585 -4.497258
v -3.233389 5.648756 -5.841614
v -4.644190 5.782483 -3.061283
v -2.927701 5.700515 -6.578162
v -2.549555 6.306084 -5.713491
v -1.508548 6.127582 -6.090059
v -3.526902 6.114549 -5.198249
v -2.107750 6.541617 -4.710149
v -1.631283 6.575682 -3.631306
v -0.432880 5.747612 -6.391126
v -3.271185 4.893477 -7.367331
v -4.469591 5.721548 -4.607510
v -4.397539 6.046249 -5.663045
v -3.711429 6.614607 -4.982172
v -2.894157 6.457912 -5.733753
v -4.421736 6.395778 -4.142560
v -2.918353 6.807439 -4.213272
v -2.067039 6.795815 -3.396444
v -2.018645 6.096761 -6.437407
v -5.025410 5.273437 -6.295989
v -5.073803 5.972495 -3.255027
v -4.820168 5.053251 -6.401023
v -4.339729 5.776464 -5.691442
v -3.418900 5.735914 -6.330026
v -5.099770 5.473627 -4.924631
v -3.698501 6.156291 -4.853634
v -2.969727 6.349157 -3.946016
v -2.410527 5.508409 -6.898798
v -5.213062 4.143082 -7.040793
v -5.772266 4.983831 -4.088013
v -4.511650 5.821481 -5.054119
v -4.560209 6.096374 -3.968098
v -3.465744 6.335464 -4.016563
v -5.499886 5.489104 -3.893280
v -4.453981 6.003090 -2.855725
v -4.263475 5.709350 -1.729002
v -2.287006 6.374095 -4.050675
v -4.378820 5.346129 -6.125790
v -6.355289 4.681382 -3.804115
v -0.946781 6.949592 -0.573639
v -0.447715 6.737124 0.720694
v 0.846126 6.885077 0.197636
v -1.672677 6.134275 1.045582
v 0.120230 6.069760 1.816855
v 0.725677 5.154727 2.805120
v 2.177470 6.785357 -0.433318
v -1.408344 6.914386 -1.975868
v -2.860137 5.283757 1.262572
v -1.101172 7.440928 -2.768793
v -0.489270 7.524255 -1.508577
v 0.751623 7.558877 -2.163169
v -1.667129 7.002419 -0.951941
v 0.185666 7.120371 -0.346320
v 0.894923 6.451218 0.762604
v 2.026835 7.328230 -2.871095
v -1.678754 7.092329 -4.082336
v -2.810668 6.215318 -0.448637
v -2.805095 7.244516 -1.375559
v -1.832415 7.401608 -0.376196
v -0.907578 7.705867 -1.386941
v -2.646118 6.636268 0.473306
v -0.748603 7.097618 0.461923
v 0.395722 6.542590 1.212249
v 0.077770 7.759085 -2.485476
v -3.717262 6.836385 -2.462711
v -3.399312 5.619892 1.235019
v -3.491239 6.664910 -2.743271
v -2.758585 6.972838 -1.586591
v -1.683335 7.326723 -2.416113
v -3.648821 6.165404 -0.861993
v -1.840917 6.827216 -0.534837
v -0.822515 6.434657 0.459787
v -0.507351 7.433670 -3.302762
v -4.123158 6.110045 -3.957077
v -4.438324 5.111033 -0.194525
v -2.901697 6.611882 -0.855201
v -2.824965 6.205009 0.485722
v -1.448297 6.473994 0.441775
v -4.036877 5.521881 0.301002
v -2.583473 5.383993 1.597981
v -2.252274 4.337493 2.585740
v 0.018080 6.517496 0.273334
v -2.888724 6.793273 -2.320618
v -5.159081 4.613273 -0.008210
vt 0.4375 0.5644
vt 0.3762 0.6251
vt 0.3150 0.5644
vt 0.4375 0.6857
vt 0.3150 0.6857
vt 0.2538 0.7464
vt 0.2538 0.5038
vt 0.4987 0.5038
vt 0.4987 0.7464
vt 0.4375 0.5644
vt 0.3762 0.6251
vt 0.3150 0.5644
vt 0.4375 0.6857
vt 0.3150 0.6857
vt 0.2538 0.7464
vt 0.2538 0.5038
vt 0.4987 0.5038
vt 0.4987 0.7464
vt 0.4375 0.5644
vt 0.3762 0.6251
vt 0.3150 0.5644
vt 0.4375 0.6857
vt 0.3150 0.6857
vt 0.2538 0.7464
vt 0.2538 0.5038
vt 0.4987 0.5038
vt 0.4987 0.7464
vt 0.4375 0.5644
vt 0.3762 0.6251
vt 0.3150 0.5644
vt 0.4375 0.6857
vt 0.3150 0.6857
vt 0.2538 0.7464
vt 0.2538 0.5038
vt 0.4987 0.5038
vt 0.4987 0.7464
vt 0.4375 0.5644
vt 0.3762 0.6251
vt 0.3150 0.5644
vt 0.4375 0.6857
vt 0.3150 0.6857
vt 0.2538 0.7464
vt 0.2538 0.5038
vt 0.4987 0.5038
vt 0.4987 0.7464
vt 0.4375 0.5644
vt 0.3762 0.6251
vt 0.3150 0.5644
vt 0.4375 0.6857
vt 0.3150 0.6857
vt 0.2538 0.7464
vt 0.2538 0.5038
vt 0.4987 0.5038
vt 0.4987 0.7464
vt 0.4375 0.5644
vt 0.3762 0.6251
vt 0.3150 0.5644
vt 0.4375 0.6857
vt 0.3150 0.6857
vt 0.2538 0.7464
vt 0.2538 0.5038
vt 0.4987 0.5038
vt 0.4987 0.7464
vt 0.4375 0.5644
vt 0.3762 0.6251
vt 0.3150 0.5644
vt 0.4375 0.6857
vt 0.3150 0.6857
vt 0.2538 0.7464
vt 0.2538 0.5038
vt 0.4987 0.5038
vt 0.4987 0.7464
vt 0.4375 0.5644
vt 0.3762 0.6251
vt 0.3150 0.5644
vt 0.4375 0.6857
vt 0.3150 0.6857
vt 0.2538 0.7464
vt 0.2538 0.5038
vt 0.4987 0.5038
vt 0.4987 0.7464
vt 0.4375 0.5644
vt 0.3762 0.6251
vt 0.3150 0.5644
vt 0.4375 0.6857
vt 0.3150 0.6857
vt 0.2538 0.7464
vt 0.2538 0.5038
vt 0.4987 0.5038
vt 0.4987 0.7464
vt 0.4375 0.5644
vt 0.3762 0.6251
vt 0.3150 0.5644
vt 0.4375 0.6857
vt 0.3150 0.6857
vt 0.2538 0.7464
vt 0.2538 0.5038
vt 0.4987 0.5038
vt 0.4987 0.7464
vt 0.4375 0.5644
vt 0.3762 0.6251
vt 0.3150 0.5644
vt 0.4375 0.6857
vt 0.3150 0.6857
vt 0.2538 0.7464
vt 0.2538 0.5038
vt 0.4987 0.5038
vt 0.4987 0.7464
vt 0.4375 0.5644
vt 0.3762 0.6251
vt 0.3150 0.5644
vt 0.4375 0.6857
vt 0.3150 0.6857
vt 0.2538 0.7464
vt 0.2538 0.5038
vt 0.4987 0.5038
vt 0.4987 0.7464
vt 0.4375 0.5644
vt 0.3762 0.6251
vt 0.3150 0.5644
vt 0.4375 0.6857
vt 0.3150 0.6857
vt 0.2538 0.7464
vt 0.2538 0.5038
vt 0.4987 0.5038
vt 0.4987 0.7464
vt 0.4375 0.5644
vt 0.3762 0.6251
vt 0.3150 0.5644
vt 0.4375 0.6857
vt 0.3150 0.6857
vt 0.2538 0.7464
vt 0.2538 0.5038
vt 0.4987 0.5038
vt 0.4987 0.7464
vt 0.4375 0.5644
vt 0.3762 0.6251
vt 0.3150 0.5644
vt 0.4375 0.6857
vt 0.3150 0.6857
vt 0.2538 0.7464
vt 0.2538 0.5038
vt 0.4987 0.5038
vt 0.4987 0.7464
vt 0.4375 0.5644
vt 0.3762 0.6251
vt 0.3150 0.5644
vt 0.4375 0.6857
vt 0.3150 0.6857
vt 0.2538 0.7464
vt 0.2538 0.5038
vt 0.4987 0.5038
vt 0.4987 0.7464
vt 0.4375 0.5644
vt 0.3762 0.6251
vt 0.3150 0.5644
vt 0.4375 0.6857
vt 0.3150 0.6857
vt 0.2538 0.7464
vt 0.2538 0.5038
vt 0.4987 0.5038
vt 0.4987 0.7464
vt 0.4375 0.5644
vt 0.3762 0.6251
vt 0.3150 0.5644
vt 0.4375 0.6857
vt 0.3150 0.6857
vt 0.2538 0.7464
vt 0.2538 0.5038
vt 0.4987 0.5038
vt 0.4987 0.7464
vt 0.4375 0.5644
vt 0.3762 0.6251
vt 0.3150 0.5644
vt 0.4375 0.6857
vt 0.3150 0.6857
vt 0.2538 0.7464
vt 0.2538 0.5038
vt 0.4987 0.5038
vt 0.4987 0.7464
vn 0.2169 0.9726 -0.0833
vn 0.3602 0.9138 0.1877
vn 0.6013 0.7986 0.0264
vn 0.0840 0.9400 0.3307
vn 0.4684 0.7659 0.4404
vn 0.4814 0.7357 0.4764
vn 0.6341 0.7732 0.0007
vn 0.1923 0.9733 -0.1254
vn 0.0396 0.9358 0.3504
vn 0.1586 0.9505 -0.2674
vn 0.3502 0.9364 -0.0214
vn 0.5632 0.8006 -0.2047
vn 0.1031 0.9810 0.1640
vn 0.5077 0.8311 0.2267
vn 0.5281 0.8071 0.2639
vn 0.5919 0.7720 -0.2319
vn 0.1269 0.9442 -0.3039
vn 0.0631 0.9794 0.1919
vn 0.0186 0.9987 -0.0468
vn 0.2743 0.9533 0.1264
vn 0.4317 0.8917 -0.1359
vn 0.0900 0.9220 0.3765
vn 0.5032 0.8150 0.2873
vn 0.5349 0.7859 0.3102
vn 0.4528 0.8740 -0.1762
vn -0.0220 0.9970 -0.0737
vn 0.0601 0.9089 0.4127
vn -0.1204 0.9791 -0.1639
vn 0.1123 0.9927 0.0437
vn 0.3123 0.9312 -0.1879
vn -0.0986 0.9575 0.2711
vn 0.3341 0.9096 0.2470
vn 0.3662 0.8884 0.2770
vn 0.3412 0.9132 -0.2229
vn -0.1561 0.9683 -0.1952
vn -0.1311 0.9434 0.3046
vn 0.1266 0.9919 -0.0108
vn 0.1730 0.9402 0.2935
vn 0.4658 0.8553 0.2267
vn -0.1368 0.9334 0.3317
vn 0.2024 0.7969 0.5692
vn 0.2053 0.7671 0.6078
vn 0.5080 0.8343 0.2141
vn 0.1182 0.9912 -0.0588
vn -0.1845 0.9240 0.3348
vn -0.1289 0.9749 -0.1816
vn 0.1185 0.9929 0.0077
vn 0.3007 0.9240 -0.2362
vn -0.0751 0.9651 0.2509
vn 0.3545 0.9142 0.1964
vn 0.3886 0.8936 0.2244
vn 0.3268 0.9049 -0.2727
vn -0.1669 0.9634 -0.2100
vn -0.1051 0.9521 0.2872
vn -0.2447 0.9135 -0.3252
vn 0.0222 0.9836 -0.1792
vn 0.1773 0.8846 -0.4314
vn -0.1350 0.9867 0.0904
vn 0.2869 0.9578 -0.0158
vn 0.3262 0.9453 0.0102
vn 0.2002 0.8611 -0.4674
vn -0.2847 0.8942 -0.3454
vn -0.1587 0.9784 0.1323
vn -0.2958 0.9529 -0.0674
vn 0.0081 0.9999 -0.0136
vn 0.0622 0.9466 -0.3163
vn -0.0468 0.9557 0.2905
vn 0.3111 0.9495 0.0416
vn 0.3563 0.9330 0.0500
vn 0.0702 0.9298 -0.3614
vn -0.3412 0.9370 -0.0754
vn -0.0551 0.9402 0.3360
vn -0.4568 0.8819 -0.1169
vn -0.1770 0.9839 -0.0233
vn -0.0739 0.9461 -0.3154
vn -0.2629 0.9259 0.2712
vn 0.1200 0.9901 0.0726
vn 0.1658 0.9823 0.0871
vn -0.0569 0.9317 -0.3588
vn -0.4969 0.8579 -0.1307
vn -0.2741 0.9085 0.3153
vn -0.1854 0.9795 -0.0788
vn -0.0118 0.9835 0.1806
vn 0.2431 0.9700 0.0010
vn -0.2657 0.9012 0.3425
vn 0.1629 0.8917 0.4224
vn 0.1890 0.8692 0.4569
vn 0.2813 0.9592 -0.0274
vn -0.2112 0.9702 -0.1192
vn -0.3035 0.8801 0.3651
vn -0.2731 0.8631 -0.4248
vn -0.1910 0.9710 -0.1436
vn 0.1068 0.9656 -0.2370
vn -0.4702 0.8818 -0.0363
vn -0.0904 0.9843 0.1515
vn -0.0736 0.9777 0.1968
vn 0.1529 0.9562 -0.2496
vn -0.2837 0.8384 -0.4655
vn -0.5102 0.8598 -0.0190
vn -0.2659 0.7619 -0.5906
vn -0.1590 0.9245 -0.3465
vn 0.1307 0.8813 -0.4542
vn -0.4333 0.8776 -0.2050
vn -0.0367 0.9970 -0.0686
vn -0.0171 0.9996 -0.0240
vn 0.1754 0.8666 -0.4672
vn -0.2804 0.7294 -0.6239
vn -0.4728 0.8624 -0.1808
vn -0.4609 0.7861 -0.4118
vn -0.2672 0.9382 -0.2199
vn -0.0408 0.9012 -0.4315
vn -0.4677 0.8838 0.0131
vn -0.0475 0.9988 -0.0066
vn -0.0124 0.9996 0.0271
vn -0.0046 0.8873 -0.4612
vn -0.4874 0.7551 -0.4385
vn -0.4952 0.8674 0.0498
vn -0.5389 0.6620 -0.5209
vn -0.4017 0.8579 -0.3204
vn -0.1473 0.8528 -0.5011
vn -0.6170 0.7795 -0.1084
vn -0.2254 0.9702 -0.0885
vn -0.1955 0.9794 -0.0511
vn -0.1058 0.8444 -0.5252
vn -0.5558 0.6251 -0.5480
vn -0.6456 0.7601 -0.0739
vn -0.3759 0.8497 -0.3698
vn -0.3867 0.9198 -0.0658
vn -0.0837 0.9933 -0.0799
vn -0.6521 0.7568 -0.0454
vn -0.3598 0.9004 0.2445
vn -0.3524 0.8893 0.2914
vn -0.0350 0.9961 -0.0814
vn -0.3709 0.8310 -0.4146
vn -0.6883 0.7243 -0.0418
vn -0.2499 0.9621 0.1095
vn -0.1375 0.9081 0.3956
vn 0.1504 0.9477 0.2817
vn -0.4120 0.7800 0.4710
vn -0.0117 0.7656 0.6432
vn 0.0083 0.7363 0.6766
vn 0.1946 0.9455 0.2611
vn -0.2655 0.9620 0.0632
vn -0.4517 0.7528 0.4787
vn -0.2634 0.9610 -0.0844
vn -0.1258 0.9726 0.1955
vn 0.1503 0.9873 0.0508
vn -0.3897 0.8631 0.3212
vn 0.0240 0.8894 0.4565
vn 0.0474 0.8684 0.4937
vn 0.1927 0.9809 0.0275
vn -0.2828 0.9506 -0.1279
vn -0.4280 0.8381 0.3383
vn -0.4406 0.8920 0.1011
vn -0.2219 0.9204 0.3219
vn -0.0170 0.9950 0.0985
vn -0.4051 0.7562 0.5139
vn 0.0185 0.8592 0.5113
vn 0.0564 0.8419 0.5367
vn 0.0156 0.9979 0.0623
vn -0.4713 0.8796 0.0653
vn -0.4305 0.7235 0.5397
vn -0.5356 0.8432 -0.0473
vn -0.3693 0.9054 0.2095
vn -0.1319 0.9909 0.0258
vn -0.5708 0.7316 0.3728
vn -0.1671 0.8794 0.4458
vn -0.1336 0.8675 0.4792
vn -0.0932 0.9956 -0.0035
vn -0.5571 0.8258 -0.0875
vn -0.5975 0.6977 0.3953
vn -0.3484 0.9235 0.1604
vn -0.3289 0.8267 0.4565
vn -0.0239 0.8927 0.4499
vn -0.6019 0.6802 0.4185
vn -0.2774 0.6494 0.7081
vn -0.2667 0.6155 0.7416
vn 0.0245 0.8952 0.4449
vn -0.3484 0.9306 0.1121
vn -0.6397 0.6509 0.4088
s 1
f 1/1/1 2/2/2 3/3/3
f 4/4/4 2/2/2 1/1/1
f 5/5/5 2/2/2 4/4/4
f 3/3/3 2/2/2 5/5/5
f 3/3/3 5/5/5 6/6/6
f 7/7/7 3/3/3 6/6/6
f 1/1/1 3/3/3 7/7/7
f 8/8/8 1/1/1 7/7/7
f 4/4/4 1/1/1 8/8/8
f 9/9/9 4/4/4 8/8/8
f 5/5/5 4/4/4 9/9/9
f 6/6/6 5/5/5 9/9/9
f 10/10/10 11/11/11 12/12/12
f 13/13/13 11/11/11 10/10/10
f 14/14/14 11/11/11 13/13/13
f 12/12/12 11/11/11 14/14/14
f 12/12/12 14/14/14 15/15/15
f 16/16/16 12/12/12 15/15/15
f 10/10/10 12/12/12 16/16/16
f 17/17/17 10/10/10 16/16/16
f 13/13/13 10/10/10 17/17/17
f 18/18/18 13/13/13 17/17/17
f 14/14/14 13/13/13 18/18/18
f 15/15/15 14/14/14 18/18/18
f 19/19/19 20/20/20 21/21/21
f 22/22/22 20/20/20 19/19/19
f 23/23/23 20/20/20 22/22/22
f 21/21/21 20/20/20 23/23/23
f 21/21/21 23/23/23 24/24/24
f 25/25/25 21/21/21 24/24/24
f 19/19/19 21/21/21 25/25/25
f 26/26/26 19/19/19 25/25/25
f 22/22/22 19/19/19 26/26/26
f 27/27/27 22/22/22 26/26/26
f 23/23/23 22/22/22 27/27/27
f 24/24/24 23/23/23 27/27/27
f 28/28/28 29/29/29 30/30/30
f 31/31/31 29/29/29 28/28/28
f 32/32/32 29/29/29 31/31/31
f 30/30/30 29/29/29 32/32/32
f 30/30/30 32/32/32 33/33/33
f 34/34/34 30/30/30 33/33/33
f 28/28/28 30/30/30 34/34/34
f 35/35/35 28/28/28 34/34/34
f 31/31/31 28/28/28 35/35/35
f 36/36/36 31/31/31 35/35/35
f 32/32/32 31/31/31 36/36/36
f 33/33/33 32/32/32 36/36/36
f 37/37/37 38/38/38 39/39/39
f 40/40/40 38/38/38 37/37/37
f 41/41/41 38/38/38 40/40/40
f 39/39/39 38/38/38 41/41/41
f 39/39/39 41/41/41 42/42/42
f 43/43/43 39/39/39 42/42/42
f 37/37/37 39/39/39 43/43/43
f 44/44/44 37/37/37 43/43/43
f 40/40/40 37/37/37 44/44/44
f 45/45/45 40/40/40 44/44/44
f 41/41/41 40/40/40 45/45/45
f 42/42/42 41/41/41 45/45/45
f 46/46/46 47/47/47 48/48/48
f 49/49/49 47/47/47 46/46/46
f 50/50/50 47/47/47 49/49/49
f 48/48/48 47/47/47 50/50/50
f 48/48/48 50/50/50 51/51/51
f 52/52/52 48/48/48 51/51/51
f 46/46/46 48/48/48 52/52/52
f 53/53/53 46/46/46 52/52/52
f 49/49/49 46/46/46 53/53/53
f 54/54/54 49/49/49 53/53/53
f 50/50/50 49/49/49 54/54/54
f 51/51/51 50/50/50 54/54/54
f 55/55/55 56/56/56 57/57/57
f 58/58/58 56/56/56 55/55/55
f 59/59/59 56/56/56 58/58/58
f 57/57/57 56/56/56 59/59/59
f 57/57/57 59/59/59 60/60/60
f 61/61/61 57/57/57 60/60/60
f 55/55/55 57/57/57 61/61/61
f 62/62/62 55/55/55 61/61/61
f 58/58/58 55/55/55 62/62/62
f 63/63/63 58/58/58 62/62/62
f 59/59/59 58/58/58 63/63/63
f 60/60/60 59/59/59 63/63/63
f 64/64/64 65/65/65 66/66/66
f 67/67/67 65/65/65 64/64/64
f 68/68/68 65/65/65 67/67/67
f 66/66/66 65/65/65 68/68/68
f 66/66/66 68/68/68 69/69/69
f 70/70/70 66/66/66 69/69/69
f 64/64/64 66/66/66 70/70/70
f 71/71/71 64/64/64 70/70/70
f 67/67/67 64/64/64 71/71/71
f 72/72/72 67/67/67 71/71/71
f 68/68/68 67/67/67 72/72/72
f 69/69/69 68/68/68 72/72/72
f 73/73/73 74/74/74 75/75/75
f 76/76/76 74/74/74 73/73/73
f 77/77/77 74/74/74 76/76/76
f 75/75/75 74/74/74 77/77/77
f 75/75/75 77/77/77 78/78/78
f 79/79/79 75/75/75 78/78/78
f 73/73/73 75/75/75 79/79/79
f 80/80/80 73/73/73 79/79/79
f 76/76/76 73/73/73 80/80/80
f 81/81/81 76/76/76 80/80/80
f 77/77/77 76/76/76 81/81/81
f 78/78/78 77/77/77 81/81/81
f 82/82/82 83/83/83 84/84/84
f 85/85/85 83/83/83 82/82/82
f 86/86/86 83/83/83 85/85/85
f 84/84/84 83/83/83 86/86/86
f 84/84/84 86/86/86 87/87/87
f 88/88/88 84/84/84 87/87/87
f 82/82/82 84/84/84 88/88/88
f 89/89/89 82/82/82 88/88/88
f 85/85/85 82/82/82 89/89/89
f 90/90/90 85/85/85 89/89/89
f 86/86/86 85/85/85 90/90/90
f 87/87/87 86/86/86 90/90/90
f 91/91/91 92/92/92 93/93/93
f 94/94/94 92/92/92 91/91/91
f 95/95/95 92/92/92 94/94/94
f 93/93/93 92/92/92 95/95/95
f 93/93/93 95/95/95 96/96/96
f 97/97/97 93/93/93 96/96/96
f 91/91/91 93/93/93 97/97/97
f 98/98/98 91/91/91 97/97/97
f 94/94/94 91/91/91 98/98/98
f 99/99/99 94/94/94 98/98/98
f 95/95/95 94/94/94 99/99/99
f 96/96/96 95/95/95 99/99/99
f 100/100/100 101/101/101 102/102/102
f 103/103/103 101/101/101 100/100/100
f 104/104/104 101/101/101 103/103/103
f 102/102/102 101/101/101 104/104/104
f 102/102/102 104/104/104 105/105/105
f 106/106/106 102/102/102 105/105/105
f 100/100/100 102/102/102 106/106/106
f 107/107/107 100/100/100 106/106/106
f 103/103/103 100/100/100 107/107/107
f 108/108/108 103/103/103 107/107/107
f 104/104/104 103/103/103 108/108/108
f 105/105/105 104/104/104 108/108/108
f 109/109/109 110/110/110 111/111/111
f 112/112/112 110/110/110 109/109/109
f 113/113/113 110/110/110 112/112/112
f 111/111/111 110/110/110 113/113/113
f 111/111/111 113/113/113 114/114/114
f 115/115/115 111/111/111 114/114/114
f 109/109/109 111/111/111 115/115/115
f 116/116/116 109/109/109 115/115/115
f 112/112/112 109/109/109 116/116/116
f 117/117/117 112/112/112 116/116/116
f 113/113/113 112/112/112 117/117/117
f 114/114/114 113/113/113 117/117/117
f 118/118/118 119/119/119 120/120/120
f 121/121/121 119/119/119 118/118/118
f 122/122/122 119/119/119 121/121/121
f 120/120/120 119/119/119 122/122/122
f 120/120/120 122/122/122 123/123/123
f 124/124/124 120/120/120 123/123/123
f 118/118/118 120/120/120 124/124/124
f 125/125/125 118/118/118 124/124/124
f 121/121/121 118/118/118 125/125/125
f 126/126/126 121/121/121 125/125/125
f 122/122/122 121/121/121 126/126/126
f 123/123/123 122/122/122 126/126/126
f 127/127/127 128/128/128 129/129/129
f 130/130/130 128/128/128 127/127/127
f 131/131/131 128/128/128 130/130/130
f 129/129/129 128/128/128 131/131/131
f 129/129/129 131/131/131 132/132/132
f 133/133/133 129/129/129 132/132/132
f 127/127/127 129/129/129 133/133/133
f 134/134/134 127/127/127 133/133/133
f 130/130/130 127/127/127 134/134/134
f 135/135/135 130/130/130 134/134/134
f 131/131/131 130/130/130 135/135/135
f 132/132/132 131/131/131 135/135/135
f 136/136/136 137/137/137 138/138/138
f 139/139/139 137/137/137 136/136/136
f 140/140/140 137/137/137 139/139/139
f 138/138/138 137/137/137 140/140/140
f 138/138/138 140/140/140 141/141/141
f 142/142/142 138/138/138 141/141/141
f 136/136/136 138/138/138 142/142/142
f 143/143/143 136/136/136 142/142/142
f 139/139/139 136/136/136 143/143/143
f 144/144/144 139/139/139 143/143/143
f 140/140/140 139/139/139 144/144/144
f 141/141/141 140/140/140 144/144/144
f 145/145/145 146/146/146 147/147/147
f 148/148/148 146/146/146 145/145/145
f 149/149/149 146/146/146 148/148/148
f 147/147/147 146/146/146 149/149/149
f 147/147/147 149/149/149 150/150/150
f 151/151/151 147/147/147 150/150/150
f 145/145/145 147/147/147 151/151/151
f 152/152/152 145/145/145 151/151/151
f 148/148/148 145/145/145 152/152/152
f 153/153/153 148/148/148 152/152/152
f 149/149/149 148/148/148 153/153/153
f 150/150/150 149/149/149 153/153/153
f 154/154/154 155/155/155 156/156/156
f 157/157/157 155/155/155 154/154/154
f 158/158/158 155/155/155 157/157/157
f 156/156/156 155/155/155 158/158/158
f 156/156/156 158/158/158 159/159/159
f 160/160/160 156/156/156 159/159/159
f 154/154/154 156/156/156 160/160/160
f 161/161/161 154/154/154 160/160/160
f 157/157/157 154/154/154 161/161/161
f 162/162/162 157/157/157 161/161/161
f 158/158/158 157/157/157 162/162/162
f 159/159/159 158/158/158 162/162/162
f 163/163/163 164/164/164 165/165/165
f 166/166/166 164/164/164 163/163/163
f 167/167/167 164/164/164 166/166/166
f 165/165/165 164/164/164 167/167/167
f 165/165/165 167/167/167 168/168/168
f 169/169/169 165/165/165 168/168/168
f 163/163/163 165/165/165 169/169/169
f 170/170/170 163/163/163 169/169/169
f 166/166/166 163/163/163 170/170/170
f 171/171/171 166/166/166 170/170/170
f 167/167/167 166/166/166 171/171/171
f 168/168/168 167/167/167 171/171/171
f 172/172/172 173/173/173 174/174/174
f 175/175/175 173/173/173 172/172/172
f 176/176/176 173/173/173 175/175/175
f 174/174/174 173/173/173 176/176/176
f 174/174/174 176/176/176 177/177/177
f 178/178/178 174/174/174 177/177/177
f 172/172/172 174/174/174 178/178/178
f 179/179/179 172/172/172 178/178/178
f 175/175/175 172/172/172 179/179/179
f 180/180/180 175/175/175 179/179/179
f 176/176/176 175/175/175 180/180/180
f 177/177/177 176/176/176 180/180/180
